<?xml version="1.0" encoding="UTF-8" ?>
<svg version="1.1" width="512" height="512" xmlns="http://www.w3.org/2000/svg" shape-rendering="crispEdges">
<rect x="236" y="0" width="1" height="1" fill="#51B951" opacity="0.086275" />
<rect x="237" y="0" width="1" height="1" fill="#50AF53" opacity="0.313725" />
<rect x="238" y="0" width="1" height="1" fill="#4FAE53" opacity="0.470588" />
<rect x="239" y="0" width="1" height="1" fill="#4BB050" opacity="0.623529" />
<rect x="240" y="0" width="1" height="1" fill="#4CB050" opacity="0.772549" />
<rect x="241" y="0" width="1" height="1" fill="#4CAF51" opacity="0.866667" />
<rect x="242" y="0" width="1" height="1" fill="#4DB050" opacity="0.909804" />
<rect x="243" y="0" width="1" height="1" fill="#4DAF51" opacity="0.952941" />
<rect x="244" y="0" width="24" height="512" fill="#4CAF50" />
<rect x="268" y="0" width="1" height="1" fill="#4DAF51" opacity="0.952941" />
<rect x="269" y="0" width="1" height="1" fill="#4DB050" opacity="0.909804" />
<rect x="270" y="0" width="1" height="1" fill="#4CAF51" opacity="0.866667" />
<rect x="271" y="0" width="1" height="1" fill="#4CB050" opacity="0.772549" />
<rect x="272" y="0" width="1" height="1" fill="#4BB050" opacity="0.623529" />
<rect x="273" y="0" width="1" height="1" fill="#4FAE53" opacity="0.470588" />
<rect x="274" y="0" width="1" height="1" fill="#50AF53" opacity="0.313725" />
<rect x="275" y="0" width="1" height="1" fill="#55AA55" opacity="0.082353" />
<rect x="232" y="1" width="1" height="1" fill="#FFFFFF" opacity="0.007843" />
<rect x="233" y="1" width="1" height="1" fill="#4DB251" opacity="0.258824" />
<rect x="234" y="1" width="1" height="1" fill="#4DB24F" opacity="0.568627" />
<rect x="235" y="1" width="1" height="1" fill="#4CAF51" opacity="0.827451" />
<rect x="236" y="1" width="1" height="1" fill="#4CB050" opacity="0.996078" />
<rect x="237" y="1" width="7" height="510" fill="#4CAF50" />
<rect x="268" y="1" width="7" height="510" fill="#4CAF50" />
<rect x="275" y="1" width="1" height="1" fill="#4CB050" opacity="0.996078" />
<rect x="276" y="1" width="1" height="1" fill="#4EB050" opacity="0.823529" />
<rect x="277" y="1" width="1" height="1" fill="#4CAF51" opacity="0.564706" />
<rect x="278" y="1" width="1" height="1" fill="#50AF54" opacity="0.250980" />
<rect x="279" y="1" width="1" height="1" fill="#FFFFFF" opacity="0.007843" />
<rect x="230" y="2" width="1" height="1" fill="#50B650" opacity="0.137255" />
<rect x="231" y="2" width="1" height="1" fill="#4FAE52" opacity="0.521569" />
<rect x="232" y="2" width="1" height="1" fill="#4DB050" opacity="0.886275" />
<rect x="233" y="2" width="4" height="508" fill="#4CAF50" />
<rect x="275" y="2" width="4" height="508" fill="#4CAF50" />
<rect x="279" y="2" width="1" height="1" fill="#4DB050" opacity="0.882353" />
<rect x="280" y="2" width="1" height="1" fill="#4BB24F" opacity="0.517647" />
<rect x="281" y="2" width="1" height="1" fill="#4BB45A" opacity="0.133333" />
<rect x="228" y="3" width="1" height="1" fill="#4DB84D" opacity="0.168627" />
<rect x="229" y="3" width="1" height="1" fill="#4DB050" opacity="0.635294" />
<rect x="230" y="3" width="1" height="1" fill="#4CB050" opacity="0.984314" />
<rect x="231" y="3" width="2" height="506" fill="#4CAF50" />
<rect x="279" y="3" width="2" height="506" fill="#4CAF50" />
<rect x="281" y="3" width="1" height="1" fill="#4DAF51" opacity="0.992157" />
<rect x="282" y="3" width="1" height="1" fill="#4DAF51" opacity="0.701961" />
<rect x="283" y="3" width="1" height="1" fill="#52AD57" opacity="0.196078" />
<rect x="226" y="4" width="1" height="1" fill="#4EBA4E" opacity="0.101961" />
<rect x="227" y="4" width="1" height="1" fill="#4BAF51" opacity="0.650980" />
<rect x="228" y="4" width="1" height="1" fill="#4CB050" opacity="0.996078" />
<rect x="229" y="4" width="2" height="504" fill="#4CAF50" />
<rect x="281" y="4" width="2" height="504" fill="#4CAF50" />
<rect x="283" y="4" width="1" height="1" fill="#4DAF51" opacity="0.992157" />
<rect x="284" y="4" width="1" height="1" fill="#4CB14F" opacity="0.643137" />
<rect x="285" y="4" width="1" height="1" fill="#47AD5C" opacity="0.098039" />
<rect x="224" y="5" width="1" height="1" fill="#80BF80" opacity="0.015686" />
<rect x="225" y="5" width="1" height="1" fill="#4FB051" opacity="0.443137" />
<rect x="226" y="5" width="1" height="1" fill="#4CB050" opacity="0.945098" />
<rect x="227" y="5" width="2" height="502" fill="#4CAF50" />
<rect x="283" y="5" width="2" height="502" fill="#4CAF50" />
<rect x="285" y="5" width="1" height="1" fill="#4EAF51" opacity="0.941176" />
<rect x="286" y="5" width="1" height="1" fill="#4FB051" opacity="0.431373" />
<rect x="287" y="5" width="1" height="1" fill="#55AA55" opacity="0.011765" />
<rect x="223" y="6" width="1" height="1" fill="#52AD5B" opacity="0.109804" />
<rect x="224" y="6" width="1" height="1" fill="#4DAF51" opacity="0.764706" />
<rect x="225" y="6" width="2" height="500" fill="#4CAF50" />
<rect x="285" y="6" width="2" height="500" fill="#4CAF50" />
<rect x="287" y="6" width="1" height="1" fill="#4EAE52" opacity="0.756863" />
<rect x="288" y="6" width="1" height="1" fill="#55B355" opacity="0.105882" />
<rect x="222" y="7" width="1" height="1" fill="#4BB053" opacity="0.266667" />
<rect x="223" y="7" width="1" height="1" fill="#4DB050" opacity="0.909804" />
<rect x="224" y="7" width="1" height="498" fill="#4CAF50" />
<rect x="287" y="7" width="1" height="498" fill="#4CAF50" />
<rect x="288" y="7" width="1" height="1" fill="#4DB050" opacity="0.921569" />
<rect x="289" y="7" width="1" height="1" fill="#4FB34F" opacity="0.290196" />
<rect x="221" y="8" width="1" height="1" fill="#4EB150" opacity="0.423529" />
<rect x="222" y="8" width="1" height="1" fill="#4DAF51" opacity="0.992157" />
<rect x="223" y="8" width="1" height="496" fill="#4CAF50" />
<rect x="288" y="8" width="1" height="496" fill="#4CAF50" />
<rect x="289" y="8" width="1" height="1" fill="#4CB050" opacity="0.996078" />
<rect x="290" y="8" width="1" height="1" fill="#4CAE53" opacity="0.447059" />
<rect x="220" y="9" width="1" height="1" fill="#4BB24F" opacity="0.466667" />
<rect x="221" y="9" width="2" height="494" fill="#4CAF50" />
<rect x="289" y="9" width="2" height="494" fill="#4CAF50" />
<rect x="291" y="9" width="1" height="1" fill="#4FAE53" opacity="0.533333" />
<rect x="292" y="9" width="1" height="1" fill="#00FF00" opacity="0.003922" />
<rect x="219" y="10" width="1" height="1" fill="#4CAF51" opacity="0.564706" />
<rect x="220" y="10" width="1" height="492" fill="#4CAF50" />
<rect x="291" y="10" width="1" height="492" fill="#4CAF50" />
<rect x="292" y="10" width="1" height="1" fill="#4BAE53" opacity="0.556863" />
<rect x="218" y="11" width="1" height="1" fill="#4BAF52" opacity="0.490196" />
<rect x="219" y="11" width="1" height="490" fill="#4CAF50" />
<rect x="292" y="11" width="1" height="490" fill="#4CAF50" />
<rect x="293" y="11" width="1" height="1" fill="#4FAE53" opacity="0.470588" />
<rect x="217" y="12" width="1" height="1" fill="#4FB34F" opacity="0.392157" />
<rect x="218" y="12" width="1" height="1" fill="#4CB050" opacity="0.996078" />
<rect x="293" y="12" width="1" height="1" fill="#4CB050" opacity="0.996078" />
<rect x="294" y="12" width="1" height="1" fill="#4DAF52" opacity="0.376471" />
<rect x="216" y="13" width="1" height="1" fill="#4BAF50" opacity="0.200000" />
<rect x="217" y="13" width="1" height="1" fill="#4CB050" opacity="0.972549" />
<rect x="218" y="13" width="1" height="486" fill="#4CAF50" />
<rect x="293" y="13" width="1" height="486" fill="#4CAF50" />
<rect x="294" y="13" width="1" height="1" fill="#4CB050" opacity="0.972549" />
<rect x="295" y="13" width="1" height="1" fill="#52AD57" opacity="0.196078" />
<rect x="215" y="14" width="1" height="1" fill="#4EC44E" opacity="0.050980" />
<rect x="216" y="14" width="1" height="1" fill="#4CAF51" opacity="0.850980" />
<rect x="217" y="14" width="1" height="484" fill="#4CAF50" />
<rect x="294" y="14" width="1" height="484" fill="#4CAF50" />
<rect x="295" y="14" width="1" height="1" fill="#4DB050" opacity="0.858824" />
<rect x="296" y="14" width="1" height="1" fill="#5BB65B" opacity="0.054902" />
<rect x="215" y="15" width="1" height="1" fill="#4DB050" opacity="0.647059" />
<rect x="216" y="15" width="1" height="482" fill="#4CAF50" />
<rect x="295" y="15" width="1" height="482" fill="#4CAF50" />
<rect x="296" y="15" width="1" height="1" fill="#4CAE52" opacity="0.631373" />
<rect x="214" y="16" width="1" height="1" fill="#4BB053" opacity="0.266667" />
<rect x="215" y="16" width="1" height="479" fill="#4CAF50" />
<rect x="296" y="16" width="1" height="479" fill="#4CAF50" />
<rect x="297" y="16" width="1" height="1" fill="#4EB44E" opacity="0.254902" />
<rect x="213" y="17" width="1" height="1" fill="#55AA55" opacity="0.023529" />
<rect x="214" y="17" width="1" height="1" fill="#4DB14F" opacity="0.843137" />
<rect x="297" y="17" width="1" height="1" fill="#4BB050" opacity="0.835294" />
<rect x="298" y="17" width="1" height="1" fill="#339966" opacity="0.019608" />
<rect x="213" y="18" width="1" height="1" fill="#4CAE53" opacity="0.447059" />
<rect x="214" y="18" width="1" height="476" fill="#4CAF50" />
<rect x="297" y="18" width="1" height="476" fill="#4CAF50" />
<rect x="298" y="18" width="1" height="1" fill="#4DAF52" opacity="0.427451" />
<rect x="212" y="19" width="1" height="1" fill="#6DB66D" opacity="0.027451" />
<rect x="213" y="19" width="1" height="1" fill="#4DB050" opacity="0.898039" />
<rect x="298" y="19" width="1" height="1" fill="#4CAF51" opacity="0.890196" />
<rect x="299" y="19" width="1" height="1" fill="#55AA55" opacity="0.023529" />
<rect x="212" y="20" width="1" height="1" fill="#4BB150" opacity="0.411765" />
<rect x="213" y="20" width="1" height="472" fill="#4CAF50" />
<rect x="298" y="20" width="1" height="472" fill="#4CAF50" />
<rect x="299" y="20" width="1" height="1" fill="#4FB34F" opacity="0.392157" />
<rect x="211" y="21" width="1" height="1" fill="#00FF00" opacity="0.003922" />
<rect x="212" y="21" width="1" height="1" fill="#4DB050" opacity="0.858824" />
<rect x="299" y="21" width="1" height="1" fill="#4DB050" opacity="0.847059" />
<rect x="300" y="21" width="1" height="1" fill="#00FF00" opacity="0.003922" />
<rect x="211" y="22" width="1" height="1" fill="#4BB44F" opacity="0.239216" />
<rect x="212" y="22" width="1" height="468" fill="#4CAF50" />
<rect x="299" y="22" width="1" height="468" fill="#4CAF50" />
<rect x="300" y="22" width="1" height="1" fill="#4CAE55" opacity="0.223529" />
<rect x="211" y="23" width="1" height="1" fill="#4CB14F" opacity="0.603922" />
<rect x="300" y="23" width="1" height="1" fill="#4EAF52" opacity="0.588235" />
<rect x="210" y="24" width="1" height="1" fill="#339966" opacity="0.019608" />
<rect x="211" y="24" width="1" height="1" fill="#4DB050" opacity="0.937255" />
<rect x="300" y="24" width="1" height="1" fill="#4CAF51" opacity="0.929412" />
<rect x="301" y="24" width="1" height="1" fill="#80BF80" opacity="0.015686" />
<rect x="210" y="25" width="1" height="1" fill="#51AE55" opacity="0.235294" />
<rect x="211" y="25" width="1" height="462" fill="#4CAF50" />
<rect x="300" y="25" width="1" height="462" fill="#4CAF50" />
<rect x="301" y="25" width="1" height="1" fill="#4AB053" opacity="0.215686" />
<rect x="210" y="26" width="1" height="1" fill="#4BAF52" opacity="0.490196" />
<rect x="301" y="26" width="1" height="1" fill="#4EB150" opacity="0.474510" />
<rect x="210" y="27" width="1" height="1" fill="#4EAE52" opacity="0.745098" />
<rect x="301" y="27" width="1" height="1" fill="#4CB050" opacity="0.733333" />
<rect x="210" y="28" width="1" height="1" fill="#4DB050" opacity="0.937255" />
<rect x="301" y="28" width="1" height="1" fill="#4CAF51" opacity="0.929412" />
<rect x="209" y="29" width="1" height="1" fill="#59B159" opacity="0.090196" />
<rect x="210" y="29" width="1" height="454" fill="#4CAF50" />
<rect x="301" y="29" width="1" height="454" fill="#4CAF50" />
<rect x="302" y="29" width="1" height="1" fill="#5EAE5E" opacity="0.074510" />
<rect x="209" y="30" width="1" height="1" fill="#4AB54E" opacity="0.243137" />
<rect x="302" y="30" width="1" height="1" fill="#4FB44F" opacity="0.227451" />
<rect x="209" y="31" width="1" height="1" fill="#4BAE53" opacity="0.372549" />
<rect x="302" y="31" width="1" height="1" fill="#4EB150" opacity="0.360784" />
<rect x="209" y="32" width="1" height="1" fill="#4FB051" opacity="0.431373" />
<rect x="302" y="32" width="1" height="1" fill="#4FB24F" opacity="0.415686" />
<rect x="209" y="33" width="1" height="1" fill="#4BB24F" opacity="0.478431" />
<rect x="302" y="33" width="1" height="1" fill="#4FAE53" opacity="0.470588" />
<rect x="209" y="34" width="1" height="1" fill="#4CAF52" opacity="0.525490" />
<rect x="302" y="34" width="1" height="1" fill="#4FAE52" opacity="0.521569" />
<rect x="209" y="35" width="1" height="174" fill="#4BAE53" opacity="0.545098" />
<rect x="302" y="35" width="1" height="174" fill="#4EB14F" opacity="0.541176" />
<rect x="29" y="209" width="1" height="1" fill="#51B951" opacity="0.086275" />
<rect x="30" y="209" width="1" height="1" fill="#51AE55" opacity="0.247059" />
<rect x="31" y="209" width="1" height="1" fill="#4CB051" opacity="0.380392" />
<rect x="32" y="209" width="1" height="1" fill="#4DAF52" opacity="0.427451" />
<rect x="33" y="209" width="1" height="1" fill="#4FAE53" opacity="0.470588" />
<rect x="34" y="209" width="175" height="1" fill="#4FAE53" opacity="0.533333" />
<rect x="209" y="209" width="1" height="1" fill="#4CAF51" opacity="0.788235" />
<rect x="302" y="209" width="1" height="1" fill="#4EB150" opacity="0.784314" />
<rect x="303" y="209" width="175" height="1" fill="#4FAE53" opacity="0.533333" />
<rect x="478" y="209" width="1" height="1" fill="#4FAE53" opacity="0.470588" />
<rect x="479" y="209" width="1" height="1" fill="#4DAF52" opacity="0.427451" />
<rect x="480" y="209" width="1" height="1" fill="#4CB051" opacity="0.380392" />
<rect x="481" y="209" width="1" height="1" fill="#4AB54E" opacity="0.243137" />
<rect x="482" y="209" width="1" height="1" fill="#51B951" opacity="0.086275" />
<rect x="24" y="210" width="1" height="1" fill="#339966" opacity="0.019608" />
<rect x="25" y="210" width="1" height="1" fill="#52B152" opacity="0.231373" />
<rect x="26" y="210" width="1" height="1" fill="#4BAF52" opacity="0.490196" />
<rect x="27" y="210" width="1" height="1" fill="#4EAE52" opacity="0.745098" />
<rect x="28" y="210" width="1" height="1" fill="#4DB050" opacity="0.937255" />
<rect x="29" y="210" width="181" height="92" fill="#4CAF50" />
<rect x="302" y="210" width="181" height="92" fill="#4CAF50" />
<rect x="483" y="210" width="1" height="1" fill="#4CB050" opacity="0.933333" />
<rect x="484" y="210" width="1" height="1" fill="#4DAF51" opacity="0.741176" />
<rect x="485" y="210" width="1" height="1" fill="#4CB150" opacity="0.486275" />
<rect x="486" y="210" width="1" height="1" fill="#4FB44F" opacity="0.227451" />
<rect x="487" y="210" width="1" height="1" fill="#80BF80" opacity="0.015686" />
<rect x="22" y="211" width="1" height="1" fill="#4BAF50" opacity="0.200000" />
<rect x="23" y="211" width="1" height="1" fill="#4DB24F" opacity="0.568627" />
<rect x="24" y="211" width="1" height="1" fill="#4DB050" opacity="0.921569" />
<rect x="25" y="211" width="4" height="90" fill="#4CAF50" />
<rect x="483" y="211" width="4" height="90" fill="#4CAF50" />
<rect x="487" y="211" width="1" height="1" fill="#4EAF51" opacity="0.941176" />
<rect x="488" y="211" width="1" height="1" fill="#4DB050" opacity="0.635294" />
<rect x="489" y="211" width="1" height="1" fill="#4BB053" opacity="0.266667" />
<rect x="490" y="211" width="1" height="1" fill="#00FF00" opacity="0.003922" />
<rect x="19" y="212" width="1" height="1" fill="#6DB66D" opacity="0.027451" />
<rect x="20" y="212" width="1" height="1" fill="#4BB150" opacity="0.411765" />
<rect x="21" y="212" width="1" height="1" fill="#4DB050" opacity="0.858824" />
<rect x="22" y="212" width="3" height="88" fill="#4CAF50" />
<rect x="487" y="212" width="3" height="88" fill="#4CAF50" />
<rect x="490" y="212" width="1" height="1" fill="#4DB050" opacity="0.858824" />
<rect x="491" y="212" width="1" height="1" fill="#4CAE53" opacity="0.407843" />
<rect x="492" y="212" width="1" height="1" fill="#6DB66D" opacity="0.027451" />
<rect x="17" y="213" width="1" height="1" fill="#55AA55" opacity="0.023529" />
<rect x="18" y="213" width="1" height="1" fill="#4CAE53" opacity="0.447059" />
<rect x="19" y="213" width="1" height="1" fill="#4EAF51" opacity="0.901961" />
<rect x="20" y="213" width="2" height="86" fill="#4CAF50" />
<rect x="490" y="213" width="2" height="86" fill="#4CAF50" />
<rect x="492" y="213" width="1" height="1" fill="#4DB050" opacity="0.898039" />
<rect x="493" y="213" width="1" height="1" fill="#4BAF52" opacity="0.439216" />
<rect x="494" y="213" width="1" height="1" fill="#55AA55" opacity="0.023529" />
<rect x="16" y="214" width="1" height="1" fill="#50AF54" opacity="0.250980" />
<rect x="17" y="214" width="1" height="1" fill="#4BB050" opacity="0.835294" />
<rect x="18" y="214" width="2" height="84" fill="#4CAF50" />
<rect x="492" y="214" width="2" height="84" fill="#4CAF50" />
<rect x="494" y="214" width="1" height="1" fill="#4CAF51" opacity="0.854902" />
<rect x="495" y="214" width="1" height="1" fill="#4BB44F" opacity="0.278431" />
<rect x="14" y="215" width="1" height="1" fill="#44AA55" opacity="0.058824" />
<rect x="15" y="215" width="1" height="1" fill="#4DB050" opacity="0.647059" />
<rect x="16" y="215" width="2" height="81" fill="#4CAF50" />
<rect x="494" y="215" width="2" height="81" fill="#4CAF50" />
<rect x="496" y="215" width="1" height="1" fill="#4EAF51" opacity="0.639216" />
<rect x="497" y="215" width="1" height="1" fill="#5BB65B" opacity="0.054902" />
<rect x="13" y="216" width="1" height="1" fill="#52AD57" opacity="0.196078" />
<rect x="14" y="216" width="1" height="1" fill="#4DB050" opacity="0.858824" />
<rect x="15" y="216" width="1" height="80" fill="#4CAF50" />
<rect x="496" y="216" width="1" height="80" fill="#4CAF50" />
<rect x="497" y="216" width="1" height="1" fill="#4CAF51" opacity="0.878431" />
<rect x="498" y="216" width="1" height="1" fill="#4AB053" opacity="0.215686" />
<rect x="12" y="217" width="1" height="1" fill="#4FB34F" opacity="0.392157" />
<rect x="13" y="217" width="1" height="1" fill="#4CB050" opacity="0.972549" />
<rect x="14" y="217" width="1" height="78" fill="#4CAF50" />
<rect x="497" y="217" width="1" height="78" fill="#4CAF50" />
<rect x="498" y="217" width="1" height="1" fill="#4CB050" opacity="0.972549" />
<rect x="499" y="217" width="1" height="1" fill="#4CB051" opacity="0.380392" />
<rect x="11" y="218" width="1" height="1" fill="#4BB24F" opacity="0.466667" />
<rect x="12" y="218" width="1" height="1" fill="#4CB050" opacity="0.996078" />
<rect x="13" y="218" width="1" height="76" fill="#4CAF50" />
<rect x="498" y="218" width="1" height="76" fill="#4CAF50" />
<rect x="499" y="218" width="1" height="1" fill="#4CB050" opacity="0.996078" />
<rect x="500" y="218" width="1" height="1" fill="#4EAF52" opacity="0.501961" />
<rect x="9" y="219" width="1" height="1" fill="#00FF00" opacity="0.003922" />
<rect x="10" y="219" width="1" height="1" fill="#4CAF51" opacity="0.564706" />
<rect x="11" y="219" width="2" height="74" fill="#4CAF50" />
<rect x="499" y="219" width="2" height="74" fill="#4CAF50" />
<rect x="501" y="219" width="1" height="1" fill="#4EB150" opacity="0.560784" />
<rect x="502" y="219" width="1" height="1" fill="#00FF00" opacity="0.003922" />
<rect x="9" y="220" width="1" height="1" fill="#4CAF52" opacity="0.525490" />
<rect x="10" y="220" width="1" height="72" fill="#4CAF50" />
<rect x="501" y="220" width="1" height="72" fill="#4CAF50" />
<rect x="502" y="220" width="1" height="1" fill="#4BB24F" opacity="0.517647" />
<rect x="8" y="221" width="1" height="1" fill="#4FB24F" opacity="0.415686" />
<rect x="9" y="221" width="1" height="70" fill="#4CAF50" />
<rect x="502" y="221" width="1" height="70" fill="#4CAF50" />
<rect x="503" y="221" width="1" height="1" fill="#4FB051" opacity="0.443137" />
<rect x="7" y="222" width="1" height="1" fill="#4EAD55" opacity="0.294118" />
<rect x="8" y="222" width="1" height="1" fill="#4DAF51" opacity="0.992157" />
<rect x="503" y="222" width="1" height="1" fill="#4DAF51" opacity="0.992157" />
<rect x="504" y="222" width="1" height="1" fill="#50B250" opacity="0.286275" />
<rect x="6" y="223" width="1" height="1" fill="#52AD5B" opacity="0.109804" />
<rect x="7" y="223" width="1" height="1" fill="#4DB050" opacity="0.921569" />
<rect x="8" y="223" width="1" height="66" fill="#4CAF50" />
<rect x="503" y="223" width="1" height="66" fill="#4CAF50" />
<rect x="504" y="223" width="1" height="1" fill="#4CAF51" opacity="0.929412" />
<rect x="505" y="223" width="1" height="1" fill="#55BB55" opacity="0.117647" />
<rect x="5" y="224" width="1" height="1" fill="#80BF80" opacity="0.015686" />
<rect x="6" y="224" width="1" height="1" fill="#4BB14F" opacity="0.768627" />
<rect x="7" y="224" width="1" height="64" fill="#4CAF50" />
<rect x="504" y="224" width="1" height="64" fill="#4CAF50" />
<rect x="505" y="224" width="1" height="1" fill="#4CB050" opacity="0.760784" />
<rect x="506" y="224" width="1" height="1" fill="#55AA55" opacity="0.011765" />
<rect x="5" y="225" width="1" height="1" fill="#4FB051" opacity="0.443137" />
<rect x="6" y="225" width="1" height="62" fill="#4CAF50" />
<rect x="505" y="225" width="1" height="62" fill="#4CAF50" />
<rect x="506" y="225" width="1" height="1" fill="#4DAF52" opacity="0.427451" />
<rect x="4" y="226" width="1" height="1" fill="#4AAA55" opacity="0.094118" />
<rect x="5" y="226" width="1" height="1" fill="#4EAF51" opacity="0.941176" />
<rect x="506" y="226" width="1" height="1" fill="#4CB050" opacity="0.945098" />
<rect x="507" y="226" width="1" height="1" fill="#4EBA4E" opacity="0.101961" />
<rect x="4" y="227" width="1" height="1" fill="#4BAF51" opacity="0.650980" />
<rect x="5" y="227" width="1" height="58" fill="#4CAF50" />
<rect x="506" y="227" width="1" height="58" fill="#4CAF50" />
<rect x="507" y="227" width="1" height="1" fill="#4DB050" opacity="0.635294" />
<rect x="3" y="228" width="1" height="1" fill="#51AE57" opacity="0.160784" />
<rect x="4" y="228" width="1" height="1" fill="#4DAF51" opacity="0.992157" />
<rect x="507" y="228" width="1" height="1" fill="#4DAF51" opacity="0.992157" />
<rect x="508" y="228" width="1" height="1" fill="#4DB84D" opacity="0.168627" />
<rect x="3" y="229" width="1" height="1" fill="#4DB050" opacity="0.647059" />
<rect x="4" y="229" width="1" height="54" fill="#4CAF50" />
<rect x="507" y="229" width="1" height="54" fill="#4CAF50" />
<rect x="508" y="229" width="1" height="1" fill="#4CAE52" opacity="0.631373" />
<rect x="2" y="230" width="1" height="1" fill="#50B650" opacity="0.137255" />
<rect x="3" y="230" width="1" height="1" fill="#4DAF51" opacity="0.988235" />
<rect x="508" y="230" width="1" height="1" fill="#4CB050" opacity="0.984314" />
<rect x="509" y="230" width="1" height="1" fill="#4DB94D" opacity="0.129412" />
<rect x="2" y="231" width="1" height="1" fill="#4CAF52" opacity="0.525490" />
<rect x="3" y="231" width="1" height="50" fill="#4CAF50" />
<rect x="508" y="231" width="1" height="50" fill="#4CAF50" />
<rect x="509" y="231" width="1" height="1" fill="#4EB150" opacity="0.509804" />
<rect x="1" y="232" width="1" height="1" fill="#FFFFFF" opacity="0.007843" />
<rect x="2" y="232" width="1" height="1" fill="#4DB050" opacity="0.886275" />
<rect x="509" y="232" width="1" height="1" fill="#4CAF51" opacity="0.878431" />
<rect x="510" y="232" width="1" height="1" fill="#FFFFFF" opacity="0.007843" />
<rect x="1" y="233" width="1" height="1" fill="#4CAF54" opacity="0.262745" />
<rect x="2" y="233" width="1" height="46" fill="#4CAF50" />
<rect x="509" y="233" width="1" height="46" fill="#4CAF50" />
<rect x="510" y="233" width="1" height="1" fill="#51AE55" opacity="0.247059" />
<rect x="1" y="234" width="1" height="1" fill="#4DB24F" opacity="0.568627" />
<rect x="510" y="234" width="1" height="1" fill="#4EAF51" opacity="0.552941" />
<rect x="1" y="235" width="1" height="1" fill="#4CAF51" opacity="0.827451" />
<rect x="510" y="235" width="1" height="1" fill="#4CB050" opacity="0.811765" />
<rect x="0" y="236" width="1" height="1" fill="#51B951" opacity="0.086275" />
<rect x="1" y="236" width="1" height="1" fill="#4CB050" opacity="0.996078" />
<rect x="510" y="236" width="1" height="1" fill="#4CB050" opacity="0.996078" />
<rect x="511" y="236" width="1" height="1" fill="#59BF59" opacity="0.078431" />
<rect x="0" y="237" width="1" height="1" fill="#50AF53" opacity="0.313725" />
<rect x="1" y="237" width="1" height="38" fill="#4CAF50" />
<rect x="510" y="237" width="1" height="38" fill="#4CAF50" />
<rect x="511" y="237" width="1" height="1" fill="#4BB44E" opacity="0.305882" />
<rect x="0" y="238" width="1" height="1" fill="#4EB150" opacity="0.474510" />
<rect x="511" y="238" width="1" height="1" fill="#4EAF52" opacity="0.462745" />
<rect x="0" y="239" width="1" height="1" fill="#4EAF51" opacity="0.627451" />
<rect x="511" y="239" width="1" height="1" fill="#4CAF51" opacity="0.615686" />
<rect x="0" y="240" width="1" height="1" fill="#4DAF51" opacity="0.776471" />
<rect x="511" y="240" width="1" height="1" fill="#4BB14F" opacity="0.768627" />
<rect x="0" y="241" width="1" height="1" fill="#4EAF51" opacity="0.862745" />
<rect x="511" y="241" width="1" height="1" fill="#4CAF51" opacity="0.850980" />
<rect x="0" y="242" width="1" height="1" fill="#4DB050" opacity="0.909804" />
<rect x="511" y="242" width="1" height="1" fill="#4EAF51" opacity="0.901961" />
<rect x="0" y="243" width="1" height="1" fill="#4DB050" opacity="0.960784" />
<rect x="511" y="243" width="1" height="1" fill="#4CB050" opacity="0.956863" />
<rect x="0" y="244" width="1" height="1" fill="#4CB050" opacity="0.996078" />
<rect x="511" y="244" width="1" height="1" fill="#4CB050" opacity="0.996078" />
<rect x="0" y="245" width="1" height="22" fill="#4CAF50" />
<rect x="511" y="245" width="1" height="22" fill="#4CAF50" />
<rect x="0" y="267" width="1" height="1" fill="#4CB050" opacity="0.996078" />
<rect x="511" y="267" width="1" height="1" fill="#4CB050" opacity="0.996078" />
<rect x="0" y="268" width="1" height="1" fill="#4DB050" opacity="0.960784" />
<rect x="511" y="268" width="1" height="1" fill="#4CB050" opacity="0.956863" />
<rect x="0" y="269" width="1" height="1" fill="#4DB050" opacity="0.909804" />
<rect x="511" y="269" width="1" height="1" fill="#4EAF51" opacity="0.901961" />
<rect x="0" y="270" width="1" height="1" fill="#4EAF51" opacity="0.862745" />
<rect x="511" y="270" width="1" height="1" fill="#4CAF51" opacity="0.850980" />
<rect x="0" y="271" width="1" height="1" fill="#4DAF51" opacity="0.776471" />
<rect x="511" y="271" width="1" height="1" fill="#4BB14F" opacity="0.768627" />
<rect x="0" y="272" width="1" height="1" fill="#4EAF51" opacity="0.627451" />
<rect x="511" y="272" width="1" height="1" fill="#4CAF51" opacity="0.615686" />
<rect x="0" y="273" width="1" height="1" fill="#4EB150" opacity="0.474510" />
<rect x="511" y="273" width="1" height="1" fill="#4EAF52" opacity="0.462745" />
<rect x="0" y="274" width="1" height="1" fill="#50AF53" opacity="0.313725" />
<rect x="511" y="274" width="1" height="1" fill="#4BB44E" opacity="0.305882" />
<rect x="0" y="275" width="1" height="1" fill="#55AA55" opacity="0.082353" />
<rect x="1" y="275" width="1" height="1" fill="#4CB050" opacity="0.996078" />
<rect x="510" y="275" width="1" height="1" fill="#4DAF51" opacity="0.992157" />
<rect x="511" y="275" width="1" height="1" fill="#59BF59" opacity="0.078431" />
<rect x="1" y="276" width="1" height="1" fill="#4EB050" opacity="0.823529" />
<rect x="510" y="276" width="1" height="1" fill="#4DB050" opacity="0.807843" />
<rect x="1" y="277" width="1" height="1" fill="#4CAF51" opacity="0.564706" />
<rect x="510" y="277" width="1" height="1" fill="#4EB150" opacity="0.549020" />
<rect x="1" y="278" width="1" height="1" fill="#4EB44E" opacity="0.254902" />
<rect x="510" y="278" width="1" height="1" fill="#4BB44F" opacity="0.239216" />
<rect x="1" y="279" width="1" height="1" fill="#00FF00" opacity="0.003922" />
<rect x="2" y="279" width="1" height="1" fill="#4BB050" opacity="0.874510" />
<rect x="509" y="279" width="1" height="1" fill="#4CAF51" opacity="0.878431" />
<rect x="510" y="279" width="1" height="1" fill="#00FF00" opacity="0.003922" />
<rect x="2" y="280" width="1" height="1" fill="#4FAE52" opacity="0.521569" />
<rect x="509" y="280" width="1" height="1" fill="#4EB150" opacity="0.509804" />
<rect x="2" y="281" width="1" height="1" fill="#4BB45A" opacity="0.133333" />
<rect x="3" y="281" width="1" height="1" fill="#4CB050" opacity="0.984314" />
<rect x="508" y="281" width="1" height="1" fill="#4CB050" opacity="0.984314" />
<rect x="509" y="281" width="1" height="1" fill="#58AF58" opacity="0.125490" />
<rect x="3" y="282" width="1" height="1" fill="#4CB14F" opacity="0.643137" />
<rect x="508" y="282" width="1" height="1" fill="#4EAF51" opacity="0.627451" />
<rect x="3" y="283" width="1" height="1" fill="#51AE57" opacity="0.160784" />
<rect x="4" y="283" width="1" height="1" fill="#4DAF51" opacity="0.992157" />
<rect x="507" y="283" width="1" height="1" fill="#4DAF51" opacity="0.992157" />
<rect x="508" y="283" width="1" height="1" fill="#4DB84D" opacity="0.168627" />
<rect x="4" y="284" width="1" height="1" fill="#4CB14F" opacity="0.643137" />
<rect x="507" y="284" width="1" height="1" fill="#4EAF51" opacity="0.627451" />
<rect x="4" y="285" width="1" height="1" fill="#4AAA55" opacity="0.094118" />
<rect x="5" y="285" width="1" height="1" fill="#4DB050" opacity="0.937255" />
<rect x="506" y="285" width="1" height="1" fill="#4CB050" opacity="0.945098" />
<rect x="507" y="285" width="1" height="1" fill="#47AD5C" opacity="0.098039" />
<rect x="5" y="286" width="1" height="1" fill="#4EB150" opacity="0.435294" />
<rect x="506" y="286" width="1" height="1" fill="#4CB051" opacity="0.419608" />
<rect x="5" y="287" width="1" height="1" fill="#55AA55" opacity="0.011765" />
<rect x="6" y="287" width="1" height="1" fill="#4CB050" opacity="0.760784" />
<rect x="505" y="287" width="1" height="1" fill="#4CB050" opacity="0.749020" />
<rect x="506" y="287" width="1" height="1" fill="#55AA55" opacity="0.011765" />
<rect x="6" y="288" width="1" height="1" fill="#55B355" opacity="0.105882" />
<rect x="7" y="288" width="1" height="1" fill="#4CAF51" opacity="0.917647" />
<rect x="504" y="288" width="1" height="1" fill="#4DAF51" opacity="0.913725" />
<rect x="505" y="288" width="1" height="1" fill="#4EBA4E" opacity="0.101961" />
<rect x="7" y="289" width="1" height="1" fill="#4AB151" opacity="0.282353" />
<rect x="8" y="289" width="1" height="1" fill="#4DAF51" opacity="0.992157" />
<rect x="503" y="289" width="1" height="1" fill="#4DAF51" opacity="0.988235" />
<rect x="504" y="289" width="1" height="1" fill="#50B350" opacity="0.274510" />
<rect x="8" y="290" width="1" height="1" fill="#4CAE53" opacity="0.407843" />
<rect x="503" y="290" width="1" height="1" fill="#4FB051" opacity="0.431373" />
<rect x="9" y="291" width="1" height="1" fill="#4EB150" opacity="0.509804" />
<rect x="502" y="291" width="1" height="1" fill="#4EAF52" opacity="0.501961" />
<rect x="10" y="292" width="1" height="1" fill="#4BAE53" opacity="0.556863" />
<rect x="501" y="292" width="1" height="1" fill="#4EAF51" opacity="0.552941" />
<rect x="11" y="293" width="1" height="1" fill="#4EB150" opacity="0.435294" />
<rect x="12" y="293" width="1" height="1" fill="#4CB050" opacity="0.996078" />
<rect x="499" y="293" width="1" height="1" fill="#4CB050" opacity="0.996078" />
<rect x="500" y="293" width="1" height="1" fill="#4EAF52" opacity="0.501961" />
<rect x="12" y="294" width="1" height="1" fill="#4DAF52" opacity="0.376471" />
<rect x="13" y="294" width="1" height="1" fill="#4CB14F" opacity="0.968627" />
<rect x="498" y="294" width="1" height="1" fill="#4CB14F" opacity="0.968627" />
<rect x="499" y="294" width="1" height="1" fill="#50AF52" opacity="0.364706" />
<rect x="13" y="295" width="1" height="1" fill="#4EB64E" opacity="0.192157" />
<rect x="14" y="295" width="1" height="1" fill="#4CAF51" opacity="0.854902" />
<rect x="497" y="295" width="1" height="1" fill="#4CAF51" opacity="0.850980" />
<rect x="498" y="295" width="1" height="1" fill="#4AAF55" opacity="0.188235" />
<rect x="14" y="296" width="1" height="1" fill="#5BB65B" opacity="0.054902" />
<rect x="15" y="296" width="1" height="1" fill="#4CAE52" opacity="0.631373" />
<rect x="16" y="296" width="1" height="1" fill="#4CB050" opacity="0.996078" />
<rect x="17" y="296" width="1" height="1" fill="#4CAF50" />
<rect x="494" y="296" width="1" height="1" fill="#4CAF50" />
<rect x="495" y="296" width="1" height="1" fill="#4CB050" opacity="0.996078" />
<rect x="496" y="296" width="1" height="1" fill="#4BB050" opacity="0.623529" />
<rect x="497" y="296" width="1" height="1" fill="#4EC44E" opacity="0.050980" />
<rect x="16" y="297" width="1" height="1" fill="#4AB54E" opacity="0.243137" />
<rect x="17" y="297" width="1" height="1" fill="#4CAF51" opacity="0.827451" />
<rect x="494" y="297" width="1" height="1" fill="#4CAF51" opacity="0.850980" />
<rect x="495" y="297" width="1" height="1" fill="#4BB053" opacity="0.266667" />
<rect x="17" y="298" width="1" height="1" fill="#339966" opacity="0.019608" />
<rect x="18" y="298" width="1" height="1" fill="#4DAF52" opacity="0.427451" />
<rect x="19" y="298" width="1" height="1" fill="#4CAF51" opacity="0.890196" />
<rect x="492" y="298" width="1" height="1" fill="#4DB050" opacity="0.886275" />
<rect x="493" y="298" width="1" height="1" fill="#4EB150" opacity="0.423529" />
<rect x="494" y="298" width="1" height="1" fill="#339966" opacity="0.019608" />
<rect x="19" y="299" width="1" height="1" fill="#55AA55" opacity="0.023529" />
<rect x="20" y="299" width="1" height="1" fill="#4EAE53" opacity="0.396078" />
<rect x="21" y="299" width="1" height="1" fill="#4CAF51" opacity="0.850980" />
<rect x="490" y="299" width="1" height="1" fill="#4DB050" opacity="0.847059" />
<rect x="491" y="299" width="1" height="1" fill="#4FB34F" opacity="0.392157" />
<rect x="492" y="299" width="1" height="1" fill="#55AA55" opacity="0.023529" />
<rect x="22" y="300" width="1" height="1" fill="#4CAE55" opacity="0.223529" />
<rect x="23" y="300" width="1" height="1" fill="#4EAF52" opacity="0.588235" />
<rect x="24" y="300" width="1" height="1" fill="#4CAF51" opacity="0.929412" />
<rect x="487" y="300" width="1" height="1" fill="#4DAF51" opacity="0.925490" />
<rect x="488" y="300" width="1" height="1" fill="#4BB050" opacity="0.584314" />
<rect x="489" y="300" width="1" height="1" fill="#4CAE55" opacity="0.223529" />
<rect x="24" y="301" width="1" height="1" fill="#80BF80" opacity="0.015686" />
<rect x="25" y="301" width="1" height="1" fill="#4AB053" opacity="0.215686" />
<rect x="26" y="301" width="1" height="1" fill="#4EB150" opacity="0.474510" />
<rect x="27" y="301" width="1" height="1" fill="#4BAF51" opacity="0.729412" />
<rect x="28" y="301" width="1" height="1" fill="#4DAF51" opacity="0.925490" />
<rect x="483" y="301" width="1" height="1" fill="#4DAF51" opacity="0.925490" />
<rect x="484" y="301" width="1" height="1" fill="#4BAF51" opacity="0.729412" />
<rect x="485" y="301" width="1" height="1" fill="#4FAE53" opacity="0.470588" />
<rect x="486" y="301" width="1" height="1" fill="#50B350" opacity="0.211765" />
<rect x="487" y="301" width="1" height="1" fill="#55AA55" opacity="0.011765" />
<rect x="29" y="302" width="1" height="1" fill="#5EAE5E" opacity="0.074510" />
<rect x="30" y="302" width="1" height="1" fill="#52B152" opacity="0.231373" />
<rect x="31" y="302" width="1" height="1" fill="#4FB051" opacity="0.368627" />
<rect x="32" y="302" width="1" height="1" fill="#4FB24F" opacity="0.415686" />
<rect x="33" y="302" width="1" height="1" fill="#4BB24F" opacity="0.466667" />
<rect x="34" y="302" width="1" height="1" fill="#4DB24F" opacity="0.529412" />
<rect x="35" y="302" width="174" height="1" fill="#4FAE53" opacity="0.533333" />
<rect x="209" y="302" width="1" height="1" fill="#4CAF51" opacity="0.788235" />
<rect x="302" y="302" width="1" height="1" fill="#4EB150" opacity="0.784314" />
<rect x="303" y="302" width="174" height="1" fill="#4FAE53" opacity="0.533333" />
<rect x="477" y="302" width="1" height="1" fill="#4DB24F" opacity="0.529412" />
<rect x="478" y="302" width="1" height="1" fill="#4BB24F" opacity="0.466667" />
<rect x="479" y="302" width="1" height="1" fill="#4FB24F" opacity="0.415686" />
<rect x="480" y="302" width="1" height="1" fill="#4FB051" opacity="0.368627" />
<rect x="481" y="302" width="1" height="1" fill="#4FB44F" opacity="0.227451" />
<rect x="482" y="302" width="1" height="1" fill="#5EAE5E" opacity="0.074510" />
<rect x="209" y="303" width="1" height="174" fill="#4BAE53" opacity="0.545098" />
<rect x="302" y="303" width="1" height="174" fill="#4EB14F" opacity="0.541176" />
<rect x="209" y="477" width="1" height="1" fill="#4CAF52" opacity="0.525490" />
<rect x="302" y="477" width="1" height="1" fill="#4FAE52" opacity="0.521569" />
<rect x="209" y="478" width="1" height="1" fill="#4BB24F" opacity="0.478431" />
<rect x="302" y="478" width="1" height="1" fill="#4BB24F" opacity="0.466667" />
<rect x="209" y="479" width="1" height="1" fill="#4FB051" opacity="0.431373" />
<rect x="302" y="479" width="1" height="1" fill="#4FB24F" opacity="0.415686" />
<rect x="209" y="480" width="1" height="1" fill="#4BAE53" opacity="0.372549" />
<rect x="302" y="480" width="1" height="1" fill="#4EB150" opacity="0.360784" />
<rect x="209" y="481" width="1" height="1" fill="#4AB54E" opacity="0.243137" />
<rect x="302" y="481" width="1" height="1" fill="#4FB44F" opacity="0.227451" />
<rect x="209" y="482" width="1" height="1" fill="#59B159" opacity="0.090196" />
<rect x="302" y="482" width="1" height="1" fill="#5EAE5E" opacity="0.074510" />
<rect x="210" y="483" width="1" height="1" fill="#4CB050" opacity="0.933333" />
<rect x="301" y="483" width="1" height="1" fill="#4DB050" opacity="0.921569" />
<rect x="210" y="484" width="1" height="1" fill="#4DAF51" opacity="0.741176" />
<rect x="301" y="484" width="1" height="1" fill="#4BAF51" opacity="0.729412" />
<rect x="210" y="485" width="1" height="1" fill="#4CB150" opacity="0.486275" />
<rect x="301" y="485" width="1" height="1" fill="#4FAE53" opacity="0.470588" />
<rect x="210" y="486" width="1" height="1" fill="#52B152" opacity="0.231373" />
<rect x="301" y="486" width="1" height="1" fill="#50B350" opacity="0.211765" />
<rect x="210" y="487" width="1" height="1" fill="#339966" opacity="0.019608" />
<rect x="211" y="487" width="1" height="1" fill="#4DB050" opacity="0.937255" />
<rect x="300" y="487" width="1" height="1" fill="#4DAF51" opacity="0.925490" />
<rect x="301" y="487" width="1" height="1" fill="#55AA55" opacity="0.011765" />
<rect x="211" y="488" width="1" height="1" fill="#4EAF50" opacity="0.600000" />
<rect x="300" y="488" width="1" height="1" fill="#4BB050" opacity="0.584314" />
<rect x="211" y="489" width="1" height="1" fill="#51AE55" opacity="0.235294" />
<rect x="300" y="489" width="1" height="1" fill="#4DAD57" opacity="0.219608" />
<rect x="211" y="490" width="1" height="1" fill="#00FF00" opacity="0.003922" />
<rect x="212" y="490" width="1" height="1" fill="#4DB050" opacity="0.858824" />
<rect x="299" y="490" width="1" height="1" fill="#4DB050" opacity="0.847059" />
<rect x="212" y="491" width="1" height="1" fill="#4CAE53" opacity="0.407843" />
<rect x="299" y="491" width="1" height="1" fill="#4FB34F" opacity="0.392157" />
<rect x="212" y="492" width="1" height="1" fill="#6DB66D" opacity="0.027451" />
<rect x="213" y="492" width="1" height="1" fill="#4CAE52" opacity="0.894118" />
<rect x="298" y="492" width="1" height="1" fill="#4DB050" opacity="0.886275" />
<rect x="299" y="492" width="1" height="1" fill="#55AA55" opacity="0.023529" />
<rect x="213" y="493" width="1" height="1" fill="#4BAF52" opacity="0.439216" />
<rect x="298" y="493" width="1" height="1" fill="#4EB150" opacity="0.423529" />
<rect x="213" y="494" width="1" height="1" fill="#55AA55" opacity="0.023529" />
<rect x="214" y="494" width="1" height="1" fill="#4CAF51" opacity="0.839216" />
<rect x="297" y="494" width="1" height="1" fill="#4DAE52" opacity="0.831373" />
<rect x="298" y="494" width="1" height="1" fill="#339966" opacity="0.019608" />
<rect x="214" y="495" width="1" height="1" fill="#4AB54E" opacity="0.243137" />
<rect x="215" y="495" width="1" height="1" fill="#4CB050" opacity="0.996078" />
<rect x="296" y="495" width="1" height="1" fill="#4CB050" opacity="0.996078" />
<rect x="297" y="495" width="1" height="1" fill="#4EB44E" opacity="0.254902" />
<rect x="215" y="496" width="1" height="1" fill="#4EAF51" opacity="0.639216" />
<rect x="296" y="496" width="1" height="1" fill="#4BB050" opacity="0.623529" />
<rect x="215" y="497" width="1" height="1" fill="#55AA55" opacity="0.047059" />
<rect x="216" y="497" width="1" height="1" fill="#4DB050" opacity="0.847059" />
<rect x="295" y="497" width="1" height="1" fill="#4DB050" opacity="0.858824" />
<rect x="296" y="497" width="1" height="1" fill="#5BB65B" opacity="0.054902" />
<rect x="216" y="498" width="1" height="1" fill="#53B153" opacity="0.180392" />
<rect x="217" y="498" width="1" height="1" fill="#4DAF51" opacity="0.964706" />
<rect x="294" y="498" width="1" height="1" fill="#4CB14F" opacity="0.968627" />
<rect x="295" y="498" width="1" height="1" fill="#4EB64E" opacity="0.192157" />
<rect x="217" y="499" width="1" height="1" fill="#4CB051" opacity="0.380392" />
<rect x="218" y="499" width="1" height="1" fill="#4CB050" opacity="0.996078" />
<rect x="293" y="499" width="1" height="1" fill="#4CB050" opacity="0.996078" />
<rect x="294" y="499" width="1" height="1" fill="#50AF52" opacity="0.364706" />
<rect x="218" y="500" width="1" height="1" fill="#4EB150" opacity="0.474510" />
<rect x="293" y="500" width="1" height="1" fill="#4CAE53" opacity="0.458824" />
<rect x="219" y="501" width="1" height="1" fill="#4EB150" opacity="0.560784" />
<rect x="292" y="501" width="1" height="1" fill="#4EAF51" opacity="0.552941" />
<rect x="220" y="502" width="1" height="1" fill="#4BB24F" opacity="0.466667" />
<rect x="291" y="502" width="1" height="1" fill="#4FAE53" opacity="0.533333" />
<rect x="221" y="503" width="1" height="1" fill="#4CB051" opacity="0.419608" />
<rect x="222" y="503" width="1" height="1" fill="#4DAF51" opacity="0.992157" />
<rect x="289" y="503" width="1" height="1" fill="#4DAF51" opacity="0.988235" />
<rect x="290" y="503" width="1" height="1" fill="#4BB150" opacity="0.411765" />
<rect x="222" y="504" width="1" height="1" fill="#4CAF54" opacity="0.262745" />
<rect x="223" y="504" width="1" height="1" fill="#4CB14F" opacity="0.905882" />
<rect x="288" y="504" width="1" height="1" fill="#4CAF51" opacity="0.917647" />
<rect x="289" y="504" width="1" height="1" fill="#4AB151" opacity="0.282353" />
<rect x="223" y="505" width="1" height="1" fill="#55B355" opacity="0.105882" />
<rect x="224" y="505" width="1" height="1" fill="#4CB050" opacity="0.760784" />
<rect x="287" y="505" width="1" height="1" fill="#4DAF51" opacity="0.752941" />
<rect x="288" y="505" width="1" height="1" fill="#4EBA4E" opacity="0.101961" />
<rect x="224" y="506" width="1" height="1" fill="#FFFFFF" opacity="0.007843" />
<rect x="225" y="506" width="1" height="1" fill="#4FB051" opacity="0.368627" />
<rect x="226" y="506" width="1" height="1" fill="#4DAF51" opacity="0.925490" />
<rect x="285" y="506" width="1" height="1" fill="#4DB050" opacity="0.937255" />
<rect x="286" y="506" width="1" height="1" fill="#4EB150" opacity="0.435294" />
<rect x="287" y="506" width="1" height="1" fill="#55AA55" opacity="0.011765" />
<rect x="226" y="507" width="1" height="1" fill="#4AAA55" opacity="0.094118" />
<rect x="227" y="507" width="1" height="1" fill="#4DB050" opacity="0.635294" />
<rect x="228" y="507" width="1" height="1" fill="#4DAF51" opacity="0.992157" />
<rect x="283" y="507" width="1" height="1" fill="#4DAF51" opacity="0.992157" />
<rect x="284" y="507" width="1" height="1" fill="#4EAF51" opacity="0.627451" />
<rect x="285" y="507" width="1" height="1" fill="#59B159" opacity="0.090196" />
<rect x="228" y="508" width="1" height="1" fill="#50B650" opacity="0.137255" />
<rect x="229" y="508" width="1" height="1" fill="#4EAF50" opacity="0.600000" />
<rect x="230" y="508" width="1" height="1" fill="#4CB050" opacity="0.984314" />
<rect x="281" y="508" width="1" height="1" fill="#4DAF51" opacity="0.992157" />
<rect x="282" y="508" width="1" height="1" fill="#4EB151" opacity="0.666667" />
<rect x="283" y="508" width="1" height="1" fill="#51AE57" opacity="0.160784" />
<rect x="230" y="509" width="1" height="1" fill="#4DB94D" opacity="0.129412" />
<rect x="231" y="509" width="1" height="1" fill="#4EAF52" opacity="0.513725" />
<rect x="232" y="509" width="1" height="1" fill="#4CAF51" opacity="0.878431" />
<rect x="279" y="509" width="1" height="1" fill="#4BB050" opacity="0.874510" />
<rect x="280" y="509" width="1" height="1" fill="#4EB150" opacity="0.509804" />
<rect x="281" y="509" width="1" height="1" fill="#58AF58" opacity="0.125490" />
<rect x="232" y="510" width="1" height="1" fill="#00FF00" opacity="0.003922" />
<rect x="233" y="510" width="1" height="1" fill="#51AE55" opacity="0.247059" />
<rect x="234" y="510" width="1" height="1" fill="#4BAE53" opacity="0.556863" />
<rect x="235" y="510" width="1" height="1" fill="#4CAF51" opacity="0.815686" />
<rect x="236" y="510" width="1" height="1" fill="#4DAF51" opacity="0.992157" />
<rect x="275" y="510" width="1" height="1" fill="#4DAF51" opacity="0.992157" />
<rect x="276" y="510" width="1" height="1" fill="#4CB050" opacity="0.811765" />
<rect x="277" y="510" width="1" height="1" fill="#4EAF51" opacity="0.552941" />
<rect x="278" y="510" width="1" height="1" fill="#4AB54E" opacity="0.243137" />
<rect x="279" y="510" width="1" height="1" fill="#00FF00" opacity="0.003922" />
<rect x="236" y="511" width="1" height="1" fill="#59BF59" opacity="0.078431" />
<rect x="237" y="511" width="1" height="1" fill="#4BB44E" opacity="0.305882" />
<rect x="238" y="511" width="1" height="1" fill="#4BB24F" opacity="0.466667" />
<rect x="239" y="511" width="1" height="1" fill="#4CAF51" opacity="0.615686" />
<rect x="240" y="511" width="1" height="1" fill="#4BB14F" opacity="0.768627" />
<rect x="241" y="511" width="1" height="1" fill="#4DB050" opacity="0.858824" />
<rect x="242" y="511" width="1" height="1" fill="#4CB14F" opacity="0.905882" />
<rect x="243" y="511" width="1" height="1" fill="#4DAF51" opacity="0.952941" />
<rect x="268" y="511" width="1" height="1" fill="#4DAF51" opacity="0.952941" />
<rect x="269" y="511" width="1" height="1" fill="#4CB14F" opacity="0.905882" />
<rect x="270" y="511" width="1" height="1" fill="#4DB050" opacity="0.858824" />
<rect x="271" y="511" width="1" height="1" fill="#4DAF51" opacity="0.764706" />
<rect x="272" y="511" width="1" height="1" fill="#4CAF51" opacity="0.615686" />
<rect x="273" y="511" width="1" height="1" fill="#4EAF52" opacity="0.462745" />
<rect x="274" y="511" width="1" height="1" fill="#4BB44E" opacity="0.305882" />
<rect x="275" y="511" width="1" height="1" fill="#5EAE5E" opacity="0.074510" />
</svg>