<?xml version="1.0" encoding="UTF-8" ?>
<svg version="1.1" width="512" height="512" xmlns="http://www.w3.org/2000/svg" shape-rendering="crispEdges">
<rect x="31" y="56" width="1" height="1" fill="#FFDC51" opacity="0.086275" />
<rect x="32" y="56" width="1" height="1" fill="#FBD756" opacity="0.278431" />
<rect x="33" y="56" width="1" height="1" fill="#FFD553" opacity="0.431373" />
<rect x="34" y="56" width="1" height="1" fill="#FDD456" opacity="0.584314" />
<rect x="35" y="56" width="1" height="1" fill="#FCD554" opacity="0.737255" />
<rect x="36" y="56" width="1" height="1" fill="#FED355" opacity="0.823529" />
<rect x="37" y="56" width="1" height="1" fill="#FDD354" opacity="0.866667" />
<rect x="38" y="56" width="1" height="1" fill="#FDD355" opacity="0.933333" />
<rect x="39" y="56" width="1" height="1" fill="#FDD455" opacity="0.976471" />
<rect x="40" y="56" width="114" height="400" fill="#FCD354" />
<rect x="154" y="56" width="1" height="1" fill="#FDD454" opacity="0.949020" />
<rect x="155" y="56" width="1" height="1" fill="#FDD355" opacity="0.933333" />
<rect x="156" y="56" width="1" height="1" fill="#FDD354" opacity="0.890196" />
<rect x="157" y="56" width="1" height="1" fill="#FED254" opacity="0.807843" />
<rect x="158" y="56" width="1" height="1" fill="#FCD255" opacity="0.717647" />
<rect x="159" y="56" width="1" height="1" fill="#FDD553" opacity="0.623529" />
<rect x="160" y="56" width="1" height="1" fill="#FFD355" opacity="0.482353" />
<rect x="161" y="56" width="1" height="1" fill="#FCD355" opacity="0.341176" />
<rect x="162" y="56" width="1" height="1" fill="#FFD553" opacity="0.192157" />
<rect x="163" y="56" width="1" height="1" fill="#FFCC66" opacity="0.019608" />
<rect x="27" y="57" width="1" height="1" fill="#FFCC66" opacity="0.039216" />
<rect x="28" y="57" width="1" height="1" fill="#FFD557" opacity="0.309804" />
<rect x="29" y="57" width="1" height="1" fill="#FBD354" opacity="0.568627" />
<rect x="30" y="57" width="1" height="1" fill="#FED355" opacity="0.823529" />
<rect x="31" y="57" width="1" height="1" fill="#FDD454" opacity="0.996078" />
<rect x="32" y="57" width="8" height="398" fill="#FCD354" />
<rect x="154" y="57" width="9" height="399" fill="#FCD354" />
<rect x="163" y="57" width="1" height="1" fill="#FDD455" opacity="0.976471" />
<rect x="164" y="57" width="1" height="1" fill="#FCD354" opacity="0.796078" />
<rect x="165" y="57" width="1" height="1" fill="#FDD553" opacity="0.588235" />
<rect x="166" y="57" width="1" height="1" fill="#FCD355" opacity="0.341176" />
<rect x="167" y="57" width="1" height="1" fill="#FFDC51" opacity="0.086275" />
<rect x="24" y="58" width="1" height="1" fill="#FFFFFF" opacity="0.007843" />
<rect x="25" y="58" width="1" height="1" fill="#FBD358" opacity="0.250980" />
<rect x="26" y="58" width="1" height="1" fill="#FDD553" opacity="0.623529" />
<rect x="27" y="58" width="1" height="1" fill="#FDD454" opacity="0.949020" />
<rect x="28" y="58" width="4" height="396" fill="#FCD354" />
<rect x="163" y="58" width="4" height="398" fill="#FCD354" />
<rect x="167" y="58" width="1" height="1" fill="#FDD454" opacity="0.996078" />
<rect x="168" y="58" width="1" height="1" fill="#FED354" opacity="0.819608" />
<rect x="169" y="58" width="1" height="1" fill="#FBD553" opacity="0.505882" />
<rect x="170" y="58" width="1" height="1" fill="#FFDA55" opacity="0.188235" />
<rect x="22" y="59" width="1" height="1" fill="#FFDF80" opacity="0.031373" />
<rect x="23" y="59" width="1" height="1" fill="#FFD654" opacity="0.415686" />
<rect x="24" y="59" width="1" height="1" fill="#FDD355" opacity="0.870588" />
<rect x="25" y="59" width="3" height="394" fill="#FCD354" />
<rect x="167" y="59" width="4" height="397" fill="#FCD354" />
<rect x="171" y="59" width="1" height="1" fill="#FBD454" opacity="0.854902" />
<rect x="172" y="59" width="1" height="1" fill="#FFD355" opacity="0.482353" />
<rect x="173" y="59" width="1" height="1" fill="#FFD15B" opacity="0.109804" />
<rect x="20" y="60" width="1" height="1" fill="#FFCC66" opacity="0.039216" />
<rect x="21" y="60" width="1" height="1" fill="#FFD356" opacity="0.454902" />
<rect x="22" y="60" width="1" height="1" fill="#FDD454" opacity="0.901961" />
<rect x="23" y="60" width="2" height="392" fill="#FCD354" />
<rect x="171" y="60" width="2" height="396" fill="#FCD354" />
<rect x="173" y="60" width="1" height="1" fill="#FDD355" opacity="0.988235" />
<rect x="174" y="60" width="1" height="1" fill="#FCD355" opacity="0.705882" />
<rect x="175" y="60" width="1" height="1" fill="#FBD855" opacity="0.258824" />
<rect x="19" y="61" width="1" height="1" fill="#FFD557" opacity="0.309804" />
<rect x="20" y="61" width="1" height="1" fill="#FDD454" opacity="0.878431" />
<rect x="21" y="61" width="2" height="390" fill="#FCD354" />
<rect x="173" y="61" width="3" height="395" fill="#FCD354" />
<rect x="176" y="61" width="1" height="1" fill="#FED455" opacity="0.811765" />
<rect x="177" y="61" width="1" height="1" fill="#FCD355" opacity="0.341176" />
<rect x="178" y="61" width="1" height="1" fill="#FFFFFF" opacity="0.007843" />
<rect x="17" y="62" width="1" height="1" fill="#FFCF60" opacity="0.125490" />
<rect x="18" y="62" width="1" height="1" fill="#FCD454" opacity="0.701961" />
<rect x="19" y="62" width="2" height="388" fill="#FCD354" />
<rect x="176" y="62" width="2" height="394" fill="#FCD354" />
<rect x="178" y="62" width="1" height="1" fill="#FED355" opacity="0.823529" />
<rect x="179" y="62" width="1" height="1" fill="#FFD256" opacity="0.313725" />
<rect x="180" y="62" width="1" height="1" fill="#FFFF00" opacity="0.003922" />
<rect x="16" y="63" width="1" height="1" fill="#FFD256" opacity="0.313725" />
<rect x="17" y="63" width="1" height="1" fill="#FDD355" opacity="0.933333" />
<rect x="18" y="63" width="1" height="386" fill="#FCD354" />
<rect x="178" y="63" width="2" height="393" fill="#FCD354" />
<rect x="180" y="63" width="1" height="1" fill="#FCD455" opacity="0.788235" />
<rect x="181" y="63" width="1" height="1" fill="#FAD955" opacity="0.211765" />
<rect x="14" y="64" width="1" height="1" fill="#FFFF6D" opacity="0.027451" />
<rect x="15" y="64" width="1" height="1" fill="#FDD254" opacity="0.580392" />
<rect x="16" y="64" width="2" height="383" fill="#FCD354" />
<rect x="180" y="64" width="1" height="392" fill="#FCD354" />
<rect x="181" y="64" width="1" height="1" fill="#FDD355" opacity="0.988235" />
<rect x="182" y="64" width="1" height="1" fill="#FDD254" opacity="0.580392" />
<rect x="183" y="64" width="1" height="1" fill="#FFEB4E" opacity="0.050980" />
<rect x="13" y="65" width="1" height="1" fill="#FFE45E" opacity="0.074510" />
<rect x="14" y="65" width="1" height="1" fill="#FCD356" opacity="0.780392" />
<rect x="15" y="65" width="1" height="382" fill="#FCD354" />
<rect x="181" y="65" width="2" height="391" fill="#FCD354" />
<rect x="183" y="65" width="1" height="1" fill="#FDD454" opacity="0.878431" />
<rect x="184" y="65" width="1" height="1" fill="#FBD256" opacity="0.266667" />
<rect x="12" y="66" width="1" height="1" fill="#FFD361" opacity="0.113725" />
<rect x="13" y="66" width="1" height="1" fill="#FBD453" opacity="0.839216" />
<rect x="14" y="66" width="1" height="380" fill="#FCD354" />
<rect x="183" y="66" width="1" height="390" fill="#FCD354" />
<rect x="184" y="66" width="1" height="1" fill="#FDD454" opacity="0.996078" />
<rect x="185" y="66" width="1" height="1" fill="#FBD354" opacity="0.568627" />
<rect x="186" y="66" width="1" height="1" fill="#FFFF6D" opacity="0.027451" />
<rect x="11" y="67" width="1" height="1" fill="#FFD259" opacity="0.156863" />
<rect x="12" y="67" width="1" height="1" fill="#FDD453" opacity="0.886275" />
<rect x="13" y="67" width="1" height="378" fill="#FCD354" />
<rect x="184" y="67" width="2" height="389" fill="#FCD354" />
<rect x="186" y="67" width="1" height="1" fill="#FCD354" opacity="0.796078" />
<rect x="187" y="67" width="1" height="1" fill="#FFD25A" opacity="0.133333" />
<rect x="10" y="68" width="1" height="1" fill="#FFD361" opacity="0.113725" />
<rect x="11" y="68" width="1" height="1" fill="#FDD453" opacity="0.886275" />
<rect x="12" y="68" width="1" height="376" fill="#FCD354" />
<rect x="186" y="68" width="1" height="388" fill="#FCD354" />
<rect x="187" y="68" width="1" height="1" fill="#FDD354" opacity="0.937255" />
<rect x="188" y="68" width="1" height="1" fill="#FBD655" opacity="0.270588" />
<rect x="9" y="69" width="1" height="1" fill="#FFE45E" opacity="0.074510" />
<rect x="10" y="69" width="1" height="1" fill="#FBD453" opacity="0.839216" />
<rect x="11" y="69" width="1" height="374" fill="#FCD354" />
<rect x="187" y="69" width="1" height="387" fill="#FCD354" />
<rect x="188" y="69" width="1" height="1" fill="#FDD355" opacity="0.988235" />
<rect x="189" y="69" width="1" height="1" fill="#FFD554" opacity="0.427451" />
<rect x="8" y="70" width="1" height="1" fill="#FFFF6D" opacity="0.027451" />
<rect x="9" y="70" width="1" height="1" fill="#FCD356" opacity="0.780392" />
<rect x="10" y="70" width="1" height="372" fill="#FCD354" />
<rect x="188" y="70" width="2" height="386" fill="#FCD354" />
<rect x="190" y="70" width="1" height="1" fill="#FBD654" opacity="0.533333" />
<rect x="191" y="70" width="1" height="1" fill="#FFFF00" opacity="0.003922" />
<rect x="8" y="71" width="1" height="1" fill="#FDD254" opacity="0.580392" />
<rect x="9" y="71" width="1" height="370" fill="#FCD354" />
<rect x="190" y="71" width="1" height="385" fill="#FCD354" />
<rect x="191" y="71" width="1" height="1" fill="#FDD354" opacity="0.592157" />
<rect x="192" y="71" width="1" height="1" fill="#FFFFFF" opacity="0.007843" />
<rect x="7" y="72" width="1" height="1" fill="#FFD855" opacity="0.329412" />
<rect x="8" y="72" width="1" height="367" fill="#FCD354" />
<rect x="191" y="72" width="1" height="384" fill="#FCD354" />
<rect x="192" y="72" width="1" height="1" fill="#FDD553" opacity="0.623529" />
<rect x="193" y="72" width="1" height="1" fill="#FFFF00" opacity="0.003922" />
<rect x="6" y="73" width="1" height="1" fill="#FFCF60" opacity="0.125490" />
<rect x="7" y="73" width="1" height="1" fill="#FDD355" opacity="0.941176" />
<rect x="192" y="73" width="1" height="383" fill="#FCD354" />
<rect x="193" y="73" width="1" height="1" fill="#FDD553" opacity="0.576471" />
<rect x="6" y="74" width="1" height="1" fill="#FCD454" opacity="0.701961" />
<rect x="7" y="74" width="1" height="364" fill="#FCD354" />
<rect x="193" y="74" width="1" height="382" fill="#FCD354" />
<rect x="194" y="74" width="1" height="1" fill="#FBD553" opacity="0.517647" />
<rect x="5" y="75" width="1" height="1" fill="#FFD256" opacity="0.313725" />
<rect x="6" y="75" width="1" height="362" fill="#FCD354" />
<rect x="194" y="75" width="1" height="381" fill="#FCD354" />
<rect x="195" y="75" width="1" height="1" fill="#FFD255" opacity="0.400000" />
<rect x="4" y="76" width="1" height="1" fill="#FFCC66" opacity="0.039216" />
<rect x="5" y="76" width="1" height="1" fill="#FDD454" opacity="0.878431" />
<rect x="195" y="76" width="1" height="1" fill="#FDD455" opacity="0.976471" />
<rect x="196" y="76" width="1" height="1" fill="#FFD255" opacity="0.247059" />
<rect x="4" y="77" width="1" height="1" fill="#FFD355" opacity="0.458824" />
<rect x="5" y="77" width="1" height="358" fill="#FCD354" />
<rect x="195" y="77" width="1" height="379" fill="#FCD354" />
<rect x="196" y="77" width="1" height="1" fill="#FDD455" opacity="0.929412" />
<rect x="197" y="77" width="1" height="1" fill="#FFD25A" opacity="0.133333" />
<rect x="3" y="78" width="1" height="1" fill="#FFFF6D" opacity="0.027451" />
<rect x="4" y="78" width="1" height="1" fill="#FDD255" opacity="0.898039" />
<rect x="196" y="78" width="1" height="378" fill="#FCD354" />
<rect x="197" y="78" width="1" height="1" fill="#FED456" opacity="0.815686" />
<rect x="198" y="78" width="1" height="1" fill="#FFCC66" opacity="0.039216" />
<rect x="3" y="79" width="1" height="1" fill="#FFD654" opacity="0.415686" />
<rect x="4" y="79" width="1" height="354" fill="#FCD354" />
<rect x="197" y="79" width="1" height="377" fill="#FCD354" />
<rect x="198" y="79" width="1" height="1" fill="#FDD553" opacity="0.647059" />
<rect x="2" y="80" width="1" height="1" fill="#FFFFFF" opacity="0.007843" />
<rect x="3" y="80" width="1" height="1" fill="#FDD355" opacity="0.870588" />
<rect x="198" y="80" width="1" height="376" fill="#FCD354" />
<rect x="199" y="80" width="1" height="1" fill="#FEC03A" />
<rect x="200" y="80" width="272" height="1" fill="#FFB125" />
<rect x="472" y="80" width="1" height="1" fill="#FFB126" opacity="0.976471" />
<rect x="473" y="80" width="1" height="1" fill="#FFB227" opacity="0.933333" />
<rect x="474" y="80" width="1" height="1" fill="#FFB226" opacity="0.866667" />
<rect x="475" y="80" width="1" height="1" fill="#FFB226" opacity="0.819608" />
<rect x="476" y="80" width="1" height="1" fill="#FFB225" opacity="0.729412" />
<rect x="477" y="80" width="1" height="1" fill="#FFB124" opacity="0.580392" />
<rect x="478" y="80" width="1" height="1" fill="#FFB128" opacity="0.423529" />
<rect x="479" y="80" width="1" height="1" fill="#FFB129" opacity="0.270588" />
<rect x="480" y="80" width="1" height="1" fill="#FFBF26" opacity="0.078431" />
<rect x="2" y="81" width="1" height="1" fill="#FBD852" opacity="0.254902" />
<rect x="3" y="81" width="1" height="350" fill="#FCD354" />
<rect x="199" y="81" width="1" height="1" fill="#FCD353" />
<rect x="200" y="81" width="1" height="1" fill="#FEBB33" />
<rect x="201" y="81" width="279" height="1" fill="#FFB125" />
<rect x="480" y="81" width="1" height="1" fill="#FFB125" opacity="0.992157" />
<rect x="481" y="81" width="1" height="1" fill="#FFB226" opacity="0.815686" />
<rect x="482" y="81" width="1" height="1" fill="#FFB428" opacity="0.556863" />
<rect x="483" y="81" width="1" height="1" fill="#FFB528" opacity="0.298039" />
<rect x="484" y="81" width="1" height="1" fill="#FFBF40" opacity="0.031373" />
<rect x="2" y="82" width="1" height="1" fill="#FDD356" opacity="0.619608" />
<rect x="199" y="82" width="1" height="374" fill="#FCD354" />
<rect x="200" y="82" width="1" height="1" fill="#FCD051" />
<rect x="201" y="82" width="1" height="1" fill="#FFB52B" />
<rect x="202" y="82" width="282" height="1" fill="#FFB125" />
<rect x="484" y="82" width="1" height="1" fill="#FFB125" opacity="0.941176" />
<rect x="485" y="82" width="1" height="1" fill="#FFB124" opacity="0.603922" />
<rect x="486" y="82" width="1" height="1" fill="#FFB726" opacity="0.235294" />
<rect x="487" y="82" width="1" height="1" fill="#FFFF00" opacity="0.003922" />
<rect x="1" y="83" width="1" height="1" fill="#FFC655" opacity="0.035294" />
<rect x="2" y="83" width="1" height="1" fill="#FDD355" opacity="0.941176" />
<rect x="200" y="83" width="1" height="373" fill="#FCD354" />
<rect x="201" y="83" width="1" height="1" fill="#FDCD4C" />
<rect x="202" y="83" width="1" height="1" fill="#FFB227" />
<rect x="203" y="83" width="284" height="2" fill="#FFB125" />
<rect x="487" y="83" width="1" height="1" fill="#FFB225" opacity="0.854902" />
<rect x="488" y="83" width="1" height="1" fill="#FFB326" opacity="0.392157" />
<rect x="489" y="83" width="1" height="1" fill="#FFAA55" opacity="0.023529" />
<rect x="1" y="84" width="1" height="1" fill="#FFD557" opacity="0.309804" />
<rect x="2" y="84" width="1" height="344" fill="#FCD354" />
<rect x="201" y="84" width="1" height="372" fill="#FCD354" />
<rect x="202" y="84" width="1" height="1" fill="#FDC743" />
<rect x="487" y="84" width="2" height="52" fill="#FFB125" />
<rect x="489" y="84" width="1" height="1" fill="#FFB125" opacity="0.890196" />
<rect x="490" y="84" width="1" height="1" fill="#FFB025" opacity="0.431373" />
<rect x="491" y="84" width="1" height="1" fill="#FFBF40" opacity="0.031373" />
<rect x="1" y="85" width="1" height="1" fill="#FBD354" opacity="0.568627" />
<rect x="202" y="85" width="1" height="371" fill="#FCD354" />
<rect x="203" y="85" width="1" height="1" fill="#FEC03A" />
<rect x="204" y="85" width="283" height="1" fill="#FFB125" />
<rect x="489" y="85" width="2" height="51" fill="#FFB125" />
<rect x="491" y="85" width="1" height="1" fill="#FFB125" opacity="0.862745" />
<rect x="492" y="85" width="1" height="1" fill="#FFB123" opacity="0.282353" />
<rect x="1" y="86" width="1" height="1" fill="#FED355" opacity="0.823529" />
<rect x="203" y="86" width="1" height="1" fill="#FCD353" />
<rect x="204" y="86" width="1" height="1" fill="#FEBB33" />
<rect x="205" y="86" width="282" height="1" fill="#FFB125" />
<rect x="491" y="86" width="2" height="50" fill="#FFB125" />
<rect x="493" y="86" width="1" height="1" fill="#FFB025" opacity="0.674510" />
<rect x="494" y="86" width="1" height="1" fill="#FFB32F" opacity="0.105882" />
<rect x="0" y="87" width="1" height="1" fill="#FFDC51" opacity="0.086275" />
<rect x="1" y="87" width="1" height="1" fill="#FDD454" opacity="0.996078" />
<rect x="203" y="87" width="1" height="369" fill="#FCD354" />
<rect x="204" y="87" width="1" height="1" fill="#FCD050" />
<rect x="205" y="87" width="1" height="1" fill="#FFB52B" />
<rect x="206" y="87" width="281" height="1" fill="#FFB125" />
<rect x="493" y="87" width="1" height="49" fill="#FFB125" />
<rect x="494" y="87" width="1" height="1" fill="#FFB126" opacity="0.925490" />
<rect x="495" y="87" width="1" height="1" fill="#FFB528" opacity="0.298039" />
<rect x="0" y="88" width="1" height="1" fill="#FBD756" opacity="0.278431" />
<rect x="1" y="88" width="1" height="336" fill="#FCD354" />
<rect x="204" y="88" width="1" height="368" fill="#FCD354" />
<rect x="205" y="88" width="1" height="1" fill="#FDCD4C" />
<rect x="206" y="88" width="1" height="1" fill="#FFB227" />
<rect x="207" y="88" width="280" height="2" fill="#FFB125" />
<rect x="494" y="88" width="1" height="48" fill="#FFB125" />
<rect x="495" y="88" width="1" height="1" fill="#FFB225" opacity="0.996078" />
<rect x="496" y="88" width="1" height="1" fill="#FFB324" opacity="0.549020" />
<rect x="497" y="88" width="1" height="1" fill="#FF9933" opacity="0.019608" />
<rect x="0" y="89" width="1" height="1" fill="#FFD553" opacity="0.431373" />
<rect x="205" y="89" width="1" height="367" fill="#FCD354" />
<rect x="206" y="89" width="1" height="1" fill="#FDC743" />
<rect x="495" y="89" width="2" height="47" fill="#FFB125" />
<rect x="497" y="89" width="1" height="1" fill="#FFB225" opacity="0.752941" />
<rect x="498" y="89" width="1" height="1" fill="#FFAF30" opacity="0.062745" />
<rect x="0" y="90" width="1" height="1" fill="#FDD456" opacity="0.584314" />
<rect x="206" y="90" width="1" height="366" fill="#FCD354" />
<rect x="207" y="90" width="1" height="1" fill="#FEC03A" />
<rect x="208" y="90" width="279" height="1" fill="#FFB125" />
<rect x="497" y="90" width="1" height="46" fill="#FFB125" />
<rect x="498" y="90" width="1" height="1" fill="#FFB225" opacity="0.831373" />
<rect x="499" y="90" width="1" height="1" fill="#FFAD24" opacity="0.109804" />
<rect x="0" y="91" width="1" height="1" fill="#FCD356" opacity="0.733333" />
<rect x="207" y="91" width="1" height="365" fill="#FCD354" />
<rect x="208" y="91" width="1" height="1" fill="#FEB931" />
<rect x="209" y="91" width="278" height="1" fill="#FFB125" />
<rect x="498" y="91" width="1" height="45" fill="#FFB125" />
<rect x="499" y="91" width="1" height="1" fill="#FFB226" opacity="0.870588" />
<rect x="500" y="91" width="1" height="1" fill="#FFB624" opacity="0.137255" />
<rect x="0" y="92" width="1" height="1" fill="#FED356" opacity="0.827451" />
<rect x="208" y="92" width="1" height="1" fill="#FCD051" />
<rect x="209" y="92" width="1" height="1" fill="#FFB52B" />
<rect x="210" y="92" width="277" height="1" fill="#FFB125" />
<rect x="499" y="92" width="1" height="44" fill="#FFB125" />
<rect x="500" y="92" width="1" height="1" fill="#FFB226" opacity="0.870588" />
<rect x="501" y="92" width="1" height="1" fill="#FFAD33" opacity="0.098039" />
<rect x="0" y="93" width="1" height="1" fill="#FDD454" opacity="0.878431" />
<rect x="208" y="93" width="1" height="363" fill="#FCD354" />
<rect x="209" y="93" width="1" height="1" fill="#FDCD4C" />
<rect x="210" y="93" width="1" height="1" fill="#FFB227" />
<rect x="211" y="93" width="276" height="2" fill="#FFB125" />
<rect x="500" y="93" width="1" height="43" fill="#FFB125" />
<rect x="501" y="93" width="1" height="1" fill="#FFB025" opacity="0.827451" />
<rect x="502" y="93" width="1" height="1" fill="#FFB41E" opacity="0.066667" />
<rect x="0" y="94" width="1" height="1" fill="#FDD455" opacity="0.929412" />
<rect x="209" y="94" width="1" height="362" fill="#FCD354" />
<rect x="210" y="94" width="1" height="1" fill="#FDC743" />
<rect x="501" y="94" width="1" height="42" fill="#FFB125" />
<rect x="502" y="94" width="1" height="1" fill="#FFB225" opacity="0.752941" />
<rect x="503" y="94" width="1" height="1" fill="#FF9933" opacity="0.019608" />
<rect x="0" y="95" width="1" height="1" fill="#FDD455" opacity="0.976471" />
<rect x="210" y="95" width="1" height="361" fill="#FCD354" />
<rect x="211" y="95" width="1" height="1" fill="#FEC03A" />
<rect x="212" y="95" width="275" height="1" fill="#FFB125" />
<rect x="502" y="95" width="1" height="41" fill="#FFB125" />
<rect x="503" y="95" width="1" height="1" fill="#FFB127" opacity="0.541176" />
<rect x="0" y="96" width="1" height="320" fill="#FCD354" />
<rect x="211" y="96" width="1" height="1" fill="#FCD353" />
<rect x="212" y="96" width="1" height="1" fill="#FEBB33" />
<rect x="213" y="96" width="274" height="1" fill="#FFB125" />
<rect x="503" y="96" width="1" height="1" fill="#FFB225" opacity="0.996078" />
<rect x="504" y="96" width="1" height="1" fill="#FFB527" opacity="0.309804" />
<rect x="211" y="97" width="1" height="359" fill="#FCD354" />
<rect x="212" y="97" width="1" height="1" fill="#FCD051" />
<rect x="213" y="97" width="1" height="1" fill="#FFB52B" />
<rect x="214" y="97" width="273" height="1" fill="#FFB125" />
<rect x="503" y="97" width="1" height="39" fill="#FFB125" />
<rect x="504" y="97" width="1" height="1" fill="#FFB126" opacity="0.925490" />
<rect x="505" y="97" width="1" height="1" fill="#FFB32F" opacity="0.105882" />
<rect x="212" y="98" width="1" height="358" fill="#FCD354" />
<rect x="213" y="98" width="1" height="1" fill="#FDCD4C" />
<rect x="214" y="98" width="1" height="1" fill="#FFB227" />
<rect x="215" y="98" width="272" height="2" fill="#FFB125" />
<rect x="504" y="98" width="1" height="38" fill="#FFB125" />
<rect x="505" y="98" width="1" height="1" fill="#FFB127" opacity="0.666667" />
<rect x="213" y="99" width="1" height="357" fill="#FCD354" />
<rect x="214" y="99" width="1" height="1" fill="#FDC743" />
<rect x="505" y="99" width="1" height="37" fill="#FFB125" />
<rect x="506" y="99" width="1" height="1" fill="#FFB329" opacity="0.290196" />
<rect x="214" y="100" width="1" height="356" fill="#FCD354" />
<rect x="215" y="100" width="1" height="1" fill="#FEC03A" />
<rect x="216" y="100" width="271" height="1" fill="#FFB125" />
<rect x="506" y="100" width="1" height="1" fill="#FFB225" opacity="0.854902" />
<rect x="507" y="100" width="1" height="1" fill="#FFB624" opacity="0.027451" />
<rect x="215" y="101" width="1" height="1" fill="#FCD353" />
<rect x="216" y="101" width="1" height="1" fill="#FEBB33" />
<rect x="217" y="101" width="270" height="1" fill="#FFB125" />
<rect x="506" y="101" width="1" height="35" fill="#FFB125" />
<rect x="507" y="101" width="1" height="1" fill="#FFB026" opacity="0.419608" />
<rect x="215" y="102" width="1" height="354" fill="#FCD354" />
<rect x="216" y="102" width="1" height="1" fill="#FCD051" />
<rect x="217" y="102" width="1" height="1" fill="#FFB52B" />
<rect x="218" y="102" width="269" height="1" fill="#FFB125" />
<rect x="507" y="102" width="1" height="1" fill="#FFB125" opacity="0.886275" />
<rect x="508" y="102" width="1" height="1" fill="#FFAA55" opacity="0.023529" />
<rect x="216" y="103" width="1" height="353" fill="#FCD354" />
<rect x="217" y="103" width="1" height="1" fill="#FDCD4C" />
<rect x="218" y="103" width="1" height="1" fill="#FFB227" />
<rect x="219" y="103" width="268" height="2" fill="#FFB125" />
<rect x="507" y="103" width="1" height="33" fill="#FFB125" />
<rect x="508" y="103" width="1" height="1" fill="#FFB424" opacity="0.388235" />
<rect x="217" y="104" width="1" height="352" fill="#FCD354" />
<rect x="218" y="104" width="1" height="1" fill="#FDC743" />
<rect x="508" y="104" width="1" height="1" fill="#FFB124" opacity="0.850980" />
<rect x="509" y="104" width="1" height="1" fill="#FFFF00" opacity="0.003922" />
<rect x="218" y="105" width="1" height="351" fill="#FCD354" />
<rect x="219" y="105" width="1" height="1" fill="#FEC03A" />
<rect x="220" y="105" width="267" height="1" fill="#FFB125" />
<rect x="508" y="105" width="1" height="31" fill="#FFB125" />
<rect x="509" y="105" width="1" height="1" fill="#FFB423" opacity="0.227451" />
<rect x="219" y="106" width="1" height="1" fill="#FCD353" />
<rect x="220" y="106" width="1" height="1" fill="#FEBB32" />
<rect x="221" y="106" width="266" height="1" fill="#FFB125" />
<rect x="509" y="106" width="1" height="1" fill="#FFB125" opacity="0.592157" />
<rect x="219" y="107" width="1" height="349" fill="#FCD354" />
<rect x="220" y="107" width="1" height="1" fill="#FCD051" />
<rect x="221" y="107" width="1" height="1" fill="#FFB52B" />
<rect x="222" y="107" width="265" height="1" fill="#FFB125" />
<rect x="509" y="107" width="1" height="1" fill="#FFB227" opacity="0.933333" />
<rect x="510" y="107" width="1" height="1" fill="#FFB624" opacity="0.027451" />
<rect x="220" y="108" width="1" height="348" fill="#FCD354" />
<rect x="221" y="108" width="1" height="1" fill="#FDCD4C" />
<rect x="222" y="108" width="1" height="1" fill="#FFB227" />
<rect x="223" y="108" width="264" height="2" fill="#FFB125" />
<rect x="509" y="108" width="1" height="28" fill="#FFB125" />
<rect x="510" y="108" width="1" height="1" fill="#FFB226" opacity="0.286275" />
<rect x="221" y="109" width="1" height="347" fill="#FCD354" />
<rect x="222" y="109" width="1" height="1" fill="#FDC743" />
<rect x="510" y="109" width="1" height="1" fill="#FFB127" opacity="0.541176" />
<rect x="222" y="110" width="1" height="346" fill="#FCD354" />
<rect x="223" y="110" width="1" height="1" fill="#FEC03A" />
<rect x="224" y="110" width="263" height="1" fill="#FFB125" />
<rect x="510" y="110" width="1" height="1" fill="#FFB327" opacity="0.800000" />
<rect x="223" y="111" width="1" height="1" fill="#FCD353" />
<rect x="224" y="111" width="1" height="1" fill="#FEBB32" />
<rect x="225" y="111" width="262" height="1" fill="#FFB125" />
<rect x="510" y="111" width="1" height="1" fill="#FFB125" opacity="0.992157" />
<rect x="511" y="111" width="1" height="1" fill="#FFAA39" opacity="0.070588" />
<rect x="223" y="112" width="1" height="344" fill="#FCD354" />
<rect x="224" y="112" width="1" height="1" fill="#FCD051" />
<rect x="225" y="112" width="1" height="1" fill="#FFB52B" />
<rect x="226" y="112" width="261" height="1" fill="#FFB125" />
<rect x="510" y="112" width="1" height="24" fill="#FFB125" />
<rect x="511" y="112" width="1" height="1" fill="#FFB62B" opacity="0.258824" />
<rect x="224" y="113" width="1" height="343" fill="#FCD354" />
<rect x="225" y="113" width="1" height="1" fill="#FDCD4C" />
<rect x="226" y="113" width="1" height="1" fill="#FFB227" />
<rect x="227" y="113" width="260" height="2" fill="#FFB125" />
<rect x="511" y="113" width="1" height="1" fill="#FFB124" opacity="0.411765" />
<rect x="225" y="114" width="1" height="342" fill="#FCD354" />
<rect x="226" y="114" width="1" height="1" fill="#FDC743" />
<rect x="511" y="114" width="1" height="1" fill="#FFB125" opacity="0.564706" />
<rect x="226" y="115" width="1" height="341" fill="#FCD354" />
<rect x="227" y="115" width="1" height="1" fill="#FEC03A" />
<rect x="228" y="115" width="259" height="1" fill="#FFB125" />
<rect x="511" y="115" width="1" height="1" fill="#FFB227" opacity="0.717647" />
<rect x="227" y="116" width="1" height="1" fill="#FCD353" />
<rect x="228" y="116" width="1" height="1" fill="#FEBB32" />
<rect x="229" y="116" width="258" height="1" fill="#FFB125" />
<rect x="511" y="116" width="1" height="1" fill="#FFB126" opacity="0.811765" />
<rect x="227" y="117" width="1" height="339" fill="#FCD354" />
<rect x="228" y="117" width="1" height="1" fill="#FCD051" />
<rect x="229" y="117" width="1" height="1" fill="#FFB52B" />
<rect x="230" y="117" width="257" height="1" fill="#FFB125" />
<rect x="511" y="117" width="1" height="1" fill="#FFB125" opacity="0.862745" />
<rect x="228" y="118" width="1" height="338" fill="#FCD354" />
<rect x="229" y="118" width="1" height="1" fill="#FDCD4C" />
<rect x="230" y="118" width="1" height="1" fill="#FFB227" />
<rect x="231" y="118" width="256" height="2" fill="#FFB125" />
<rect x="511" y="118" width="1" height="1" fill="#FFB225" opacity="0.917647" />
<rect x="229" y="119" width="1" height="337" fill="#FCD354" />
<rect x="230" y="119" width="1" height="1" fill="#FDC743" />
<rect x="511" y="119" width="1" height="1" fill="#FFB225" opacity="0.972549" />
<rect x="230" y="120" width="1" height="336" fill="#FCD354" />
<rect x="231" y="120" width="1" height="1" fill="#FEC03A" />
<rect x="232" y="120" width="255" height="1" fill="#FFB125" />
<rect x="511" y="120" width="1" height="16" fill="#FFB125" />
<rect x="231" y="121" width="1" height="1" fill="#FCD353" />
<rect x="232" y="121" width="1" height="1" fill="#FEBB32" />
<rect x="233" y="121" width="254" height="1" fill="#FFB125" />
<rect x="231" y="122" width="1" height="334" fill="#FCD354" />
<rect x="232" y="122" width="1" height="1" fill="#FCD051" />
<rect x="233" y="122" width="1" height="1" fill="#FFB52B" />
<rect x="234" y="122" width="253" height="1" fill="#FFB125" />
<rect x="232" y="123" width="1" height="333" fill="#FCD354" />
<rect x="233" y="123" width="1" height="1" fill="#FDCD4C" />
<rect x="234" y="123" width="1" height="1" fill="#FFB227" />
<rect x="235" y="123" width="252" height="2" fill="#FFB125" />
<rect x="233" y="124" width="1" height="332" fill="#FCD354" />
<rect x="234" y="124" width="1" height="1" fill="#FDC743" />
<rect x="234" y="125" width="1" height="331" fill="#FCD354" />
<rect x="235" y="125" width="1" height="1" fill="#FEC03A" />
<rect x="236" y="125" width="251" height="1" fill="#FFB125" />
<rect x="235" y="126" width="1" height="1" fill="#FCD353" />
<rect x="236" y="126" width="1" height="1" fill="#FEBB32" />
<rect x="237" y="126" width="250" height="1" fill="#FFB125" />
<rect x="235" y="127" width="1" height="329" fill="#FCD354" />
<rect x="236" y="127" width="1" height="1" fill="#FCD151" />
<rect x="237" y="127" width="1" height="1" fill="#FEB72D" />
<rect x="238" y="127" width="249" height="1" fill="#FFB125" />
<rect x="236" y="128" width="1" height="328" fill="#FCD354" />
<rect x="237" y="128" width="1" height="1" fill="#FCD04F" />
<rect x="238" y="128" width="1" height="1" fill="#FFB52B" />
<rect x="239" y="128" width="248" height="1" fill="#FFB125" />
<rect x="237" y="129" width="1" height="327" fill="#FCD354" />
<rect x="238" y="129" width="1" height="1" fill="#FCCF4E" />
<rect x="239" y="129" width="1" height="1" fill="#FFB62C" />
<rect x="240" y="129" width="247" height="1" fill="#FFB125" />
<rect x="238" y="130" width="1" height="326" fill="#FCD354" />
<rect x="239" y="130" width="1" height="1" fill="#FCD050" />
<rect x="240" y="130" width="1" height="1" fill="#FEB92F" />
<rect x="241" y="130" width="246" height="1" fill="#FFB125" />
<rect x="239" y="131" width="2" height="325" fill="#FCD354" />
<rect x="241" y="131" width="1" height="1" fill="#FDC23C" />
<rect x="242" y="131" width="1" height="1" fill="#FFB126" />
<rect x="243" y="131" width="244" height="1" fill="#FFB125" />
<rect x="241" y="132" width="1" height="324" fill="#FCD354" />
<rect x="242" y="132" width="1" height="1" fill="#FDCB49" />
<rect x="243" y="132" width="1" height="1" fill="#FEB82E" />
<rect x="244" y="132" width="243" height="1" fill="#FFB125" />
<rect x="242" y="133" width="1" height="323" fill="#FCD354" />
<rect x="243" y="133" width="1" height="1" fill="#FCD253" />
<rect x="244" y="133" width="1" height="1" fill="#FDC643" />
<rect x="245" y="133" width="1" height="1" fill="#FFB62C" />
<rect x="246" y="133" width="241" height="1" fill="#FFB125" />
<rect x="243" y="134" width="3" height="322" fill="#FCD354" />
<rect x="246" y="134" width="1" height="1" fill="#FDCB48" />
<rect x="247" y="134" width="1" height="1" fill="#FEBD35" />
<rect x="248" y="134" width="1" height="1" fill="#FFB328" />
<rect x="249" y="134" width="238" height="1" fill="#FFB125" />
<rect x="246" y="135" width="3" height="321" fill="#FCD354" />
<rect x="249" y="135" width="1" height="1" fill="#FDCB48" />
<rect x="250" y="135" width="1" height="1" fill="#FDC33E" />
<rect x="251" y="135" width="1" height="1" fill="#FEBD35" />
<rect x="252" y="135" width="1" height="1" fill="#FEB72D" />
<rect x="253" y="135" width="1" height="1" fill="#FFB52A" />
<rect x="254" y="135" width="1" height="1" fill="#FFB327" />
<rect x="255" y="135" width="232" height="1" fill="#FFB125" />
<rect x="249" y="136" width="263" height="280" fill="#FCD354" />
<rect x="0" y="416" width="1" height="1" fill="#FDD455" opacity="0.976471" />
<rect x="249" y="416" width="262" height="8" fill="#FCD354" />
<rect x="511" y="416" width="1" height="1" fill="#FDD454" opacity="0.972549" />
<rect x="0" y="417" width="1" height="1" fill="#FDD455" opacity="0.929412" />
<rect x="511" y="417" width="1" height="1" fill="#FDD455" opacity="0.921569" />
<rect x="0" y="418" width="1" height="1" fill="#FDD454" opacity="0.878431" />
<rect x="511" y="418" width="1" height="1" fill="#FDD355" opacity="0.870588" />
<rect x="0" y="419" width="1" height="1" fill="#FED356" opacity="0.827451" />
<rect x="511" y="419" width="1" height="1" fill="#FED354" opacity="0.819608" />
<rect x="0" y="420" width="1" height="1" fill="#FCD356" opacity="0.733333" />
<rect x="511" y="420" width="1" height="1" fill="#FCD454" opacity="0.725490" />
<rect x="0" y="421" width="1" height="1" fill="#FDD456" opacity="0.584314" />
<rect x="511" y="421" width="1" height="1" fill="#FDD356" opacity="0.572549" />
<rect x="0" y="422" width="1" height="1" fill="#FFD553" opacity="0.431373" />
<rect x="511" y="422" width="1" height="1" fill="#FFD453" opacity="0.419608" />
<rect x="0" y="423" width="1" height="1" fill="#FBD756" opacity="0.278431" />
<rect x="511" y="423" width="1" height="1" fill="#FBD256" opacity="0.266667" />
<rect x="0" y="424" width="1" height="1" fill="#FFCE55" opacity="0.082353" />
<rect x="1" y="424" width="1" height="1" fill="#FDD454" opacity="0.996078" />
<rect x="249" y="424" width="261" height="4" fill="#FCD354" />
<rect x="510" y="424" width="1" height="1" fill="#FDD455" opacity="0.992157" />
<rect x="511" y="424" width="1" height="1" fill="#FFE45E" opacity="0.074510" />
<rect x="1" y="425" width="1" height="1" fill="#FED355" opacity="0.823529" />
<rect x="510" y="425" width="1" height="1" fill="#FED254" opacity="0.807843" />
<rect x="1" y="426" width="1" height="1" fill="#FBD553" opacity="0.564706" />
<rect x="510" y="426" width="1" height="1" fill="#FBD356" opacity="0.549020" />
<rect x="1" y="427" width="1" height="1" fill="#FFD855" opacity="0.305882" />
<rect x="510" y="427" width="1" height="1" fill="#FFD256" opacity="0.290196" />
<rect x="1" y="428" width="1" height="1" fill="#FFC655" opacity="0.035294" />
<rect x="2" y="428" width="1" height="1" fill="#FDD355" opacity="0.941176" />
<rect x="249" y="428" width="260" height="3" fill="#FCD354" />
<rect x="509" y="428" width="1" height="1" fill="#FDD355" opacity="0.941176" />
<rect x="510" y="428" width="1" height="1" fill="#FFC655" opacity="0.035294" />
<rect x="2" y="429" width="1" height="1" fill="#FDD354" opacity="0.615686" />
<rect x="509" y="429" width="1" height="1" fill="#FDD254" opacity="0.603922" />
<rect x="2" y="430" width="1" height="1" fill="#FBD358" opacity="0.250980" />
<rect x="509" y="430" width="1" height="1" fill="#FFD158" opacity="0.239216" />
<rect x="2" y="431" width="1" height="1" fill="#FFFFFF" opacity="0.007843" />
<rect x="3" y="431" width="1" height="1" fill="#FDD354" opacity="0.866667" />
<rect x="249" y="431" width="259" height="2" fill="#FCD354" />
<rect x="508" y="431" width="1" height="1" fill="#FDD455" opacity="0.858824" />
<rect x="509" y="431" width="1" height="1" fill="#FFFF00" opacity="0.003922" />
<rect x="3" y="432" width="1" height="1" fill="#FFD355" opacity="0.411765" />
<rect x="508" y="432" width="1" height="1" fill="#FFD255" opacity="0.400000" />
<rect x="3" y="433" width="1" height="1" fill="#FFFF6D" opacity="0.027451" />
<rect x="4" y="433" width="1" height="1" fill="#FDD255" opacity="0.898039" />
<rect x="249" y="433" width="258" height="2" fill="#FCD354" />
<rect x="507" y="433" width="1" height="1" fill="#FDD354" opacity="0.890196" />
<rect x="508" y="433" width="1" height="1" fill="#FFFF6D" opacity="0.027451" />
<rect x="4" y="434" width="1" height="1" fill="#FFD554" opacity="0.450980" />
<rect x="507" y="434" width="1" height="1" fill="#FFD553" opacity="0.431373" />
<rect x="4" y="435" width="1" height="1" fill="#FFCC66" opacity="0.039216" />
<rect x="5" y="435" width="1" height="1" fill="#FDD553" opacity="0.874510" />
<rect x="249" y="435" width="257" height="2" fill="#FCD354" />
<rect x="506" y="435" width="1" height="1" fill="#FDD453" opacity="0.862745" />
<rect x="507" y="435" width="1" height="1" fill="#FFDF80" opacity="0.031373" />
<rect x="5" y="436" width="1" height="1" fill="#FFD557" opacity="0.286275" />
<rect x="506" y="436" width="1" height="1" fill="#FFD655" opacity="0.294118" />
<rect x="6" y="437" width="1" height="1" fill="#FCD255" opacity="0.694118" />
<rect x="249" y="437" width="256" height="1" fill="#FCD354" />
<rect x="505" y="437" width="1" height="1" fill="#FCD355" opacity="0.682353" />
<rect x="6" y="438" width="1" height="1" fill="#FFDD55" opacity="0.117647" />
<rect x="7" y="438" width="1" height="1" fill="#FDD354" opacity="0.937255" />
<rect x="249" y="438" width="255" height="1" fill="#FCD354" />
<rect x="504" y="438" width="1" height="1" fill="#FDD355" opacity="0.933333" />
<rect x="505" y="438" width="1" height="1" fill="#FFD361" opacity="0.113725" />
<rect x="7" y="439" width="1" height="1" fill="#FFD357" opacity="0.298039" />
<rect x="8" y="439" width="1" height="1" fill="#FDD454" opacity="0.996078" />
<rect x="249" y="439" width="254" height="2" fill="#FCD354" />
<rect x="503" y="439" width="1" height="1" fill="#FDD454" opacity="0.996078" />
<rect x="504" y="439" width="1" height="1" fill="#FFD655" opacity="0.317647" />
<rect x="8" y="440" width="1" height="1" fill="#FBD354" opacity="0.568627" />
<rect x="503" y="440" width="1" height="1" fill="#FBD254" opacity="0.556863" />
<rect x="8" y="441" width="1" height="1" fill="#FFFF6D" opacity="0.027451" />
<rect x="9" y="441" width="1" height="1" fill="#FCD454" opacity="0.772549" />
<rect x="249" y="441" width="253" height="1" fill="#FCD354" />
<rect x="502" y="441" width="1" height="1" fill="#FCD554" opacity="0.760784" />
<rect x="503" y="441" width="1" height="1" fill="#FFFF55" opacity="0.023529" />
<rect x="9" y="442" width="1" height="1" fill="#FFCC55" opacity="0.058824" />
<rect x="10" y="442" width="1" height="1" fill="#FED456" opacity="0.815686" />
<rect x="249" y="442" width="252" height="1" fill="#FCD354" />
<rect x="501" y="442" width="1" height="1" fill="#FED254" opacity="0.831373" />
<rect x="502" y="442" width="1" height="1" fill="#FFE355" opacity="0.070588" />
<rect x="10" y="443" width="1" height="1" fill="#FFD955" opacity="0.105882" />
<rect x="11" y="443" width="1" height="1" fill="#FDD454" opacity="0.878431" />
<rect x="249" y="443" width="251" height="1" fill="#FCD354" />
<rect x="500" y="443" width="1" height="1" fill="#FDD354" opacity="0.890196" />
<rect x="501" y="443" width="1" height="1" fill="#FFDD55" opacity="0.117647" />
<rect x="11" y="444" width="1" height="1" fill="#FFD155" opacity="0.152941" />
<rect x="12" y="444" width="1" height="1" fill="#FDD455" opacity="0.882353" />
<rect x="249" y="444" width="250" height="1" fill="#FCD354" />
<rect x="499" y="444" width="1" height="1" fill="#FDD455" opacity="0.882353" />
<rect x="500" y="444" width="1" height="1" fill="#FFD057" opacity="0.149020" />
<rect x="12" y="445" width="1" height="1" fill="#FFD65C" opacity="0.098039" />
<rect x="13" y="445" width="1" height="1" fill="#FED354" opacity="0.819608" />
<rect x="249" y="445" width="249" height="1" fill="#FCD354" />
<rect x="498" y="445" width="1" height="1" fill="#FBD455" opacity="0.835294" />
<rect x="499" y="445" width="1" height="1" fill="#FFD361" opacity="0.113725" />
<rect x="13" y="446" width="1" height="1" fill="#FFE355" opacity="0.070588" />
<rect x="14" y="446" width="1" height="1" fill="#FCD454" opacity="0.772549" />
<rect x="249" y="446" width="248" height="1" fill="#FCD354" />
<rect x="497" y="446" width="1" height="1" fill="#FCD554" opacity="0.760784" />
<rect x="498" y="446" width="1" height="1" fill="#FFD25A" opacity="0.066667" />
<rect x="14" y="447" width="1" height="1" fill="#FFBF80" opacity="0.015686" />
<rect x="15" y="447" width="1" height="1" fill="#FBD654" opacity="0.533333" />
<rect x="16" y="447" width="1" height="1" fill="#FDD454" opacity="0.996078" />
<rect x="17" y="447" width="1" height="1" fill="#FCD354" />
<rect x="249" y="447" width="246" height="1" fill="#FCD354" />
<rect x="495" y="447" width="1" height="1" fill="#FDD454" opacity="0.996078" />
<rect x="496" y="447" width="1" height="1" fill="#FBD354" opacity="0.568627" />
<rect x="497" y="447" width="1" height="1" fill="#FFFF55" opacity="0.023529" />
<rect x="16" y="448" width="1" height="1" fill="#FFD557" opacity="0.309804" />
<rect x="17" y="448" width="1" height="1" fill="#FDD355" opacity="0.933333" />
<rect x="249" y="448" width="245" height="1" fill="#FCD354" />
<rect x="494" y="448" width="1" height="1" fill="#FDD455" opacity="0.945098" />
<rect x="495" y="448" width="1" height="1" fill="#FCD254" opacity="0.333333" />
<rect x="17" y="449" width="1" height="1" fill="#FFDE52" opacity="0.121569" />
<rect x="18" y="449" width="1" height="1" fill="#FCD255" opacity="0.694118" />
<rect x="249" y="449" width="244" height="1" fill="#FCD354" />
<rect x="493" y="449" width="1" height="1" fill="#FCD355" opacity="0.682353" />
<rect x="494" y="449" width="1" height="1" fill="#FFD361" opacity="0.113725" />
<rect x="19" y="450" width="1" height="1" fill="#FFD357" opacity="0.298039" />
<rect x="20" y="450" width="1" height="1" fill="#FDD355" opacity="0.870588" />
<rect x="249" y="450" width="242" height="1" fill="#FCD354" />
<rect x="491" y="450" width="1" height="1" fill="#FDD354" opacity="0.866667" />
<rect x="492" y="450" width="1" height="1" fill="#FFD655" opacity="0.294118" />
<rect x="20" y="451" width="1" height="1" fill="#FFC655" opacity="0.035294" />
<rect x="21" y="451" width="1" height="1" fill="#FFD654" opacity="0.439216" />
<rect x="22" y="451" width="1" height="1" fill="#FDD355" opacity="0.894118" />
<rect x="249" y="451" width="240" height="1" fill="#FCD354" />
<rect x="489" y="451" width="1" height="1" fill="#FDD354" opacity="0.890196" />
<rect x="490" y="451" width="1" height="1" fill="#FFD355" opacity="0.435294" />
<rect x="491" y="451" width="1" height="1" fill="#FFDF80" opacity="0.031373" />
<rect x="22" y="452" width="1" height="1" fill="#FFFF6D" opacity="0.027451" />
<rect x="23" y="452" width="1" height="1" fill="#FFD254" opacity="0.403922" />
<rect x="24" y="452" width="1" height="1" fill="#FDD453" opacity="0.862745" />
<rect x="249" y="452" width="238" height="1" fill="#FCD354" />
<rect x="487" y="452" width="1" height="1" fill="#FDD455" opacity="0.858824" />
<rect x="488" y="452" width="1" height="1" fill="#FFD255" opacity="0.400000" />
<rect x="489" y="452" width="1" height="1" fill="#FFFF55" opacity="0.023529" />
<rect x="25" y="453" width="1" height="1" fill="#FAD255" opacity="0.200000" />
<rect x="26" y="453" width="1" height="1" fill="#FBD354" opacity="0.568627" />
<rect x="27" y="453" width="1" height="1" fill="#FDD454" opacity="0.925490" />
<rect x="249" y="453" width="235" height="1" fill="#FCD354" />
<rect x="484" y="453" width="1" height="1" fill="#FDD355" opacity="0.941176" />
<rect x="485" y="453" width="1" height="1" fill="#FDD553" opacity="0.635294" />
<rect x="486" y="453" width="1" height="1" fill="#FBD256" opacity="0.266667" />
<rect x="487" y="453" width="1" height="1" fill="#FFFF00" opacity="0.003922" />
<rect x="27" y="454" width="1" height="1" fill="#FFDF80" opacity="0.031373" />
<rect x="28" y="454" width="1" height="1" fill="#FFD655" opacity="0.294118" />
<rect x="29" y="454" width="1" height="1" fill="#FBD254" opacity="0.556863" />
<rect x="30" y="454" width="1" height="1" fill="#FED455" opacity="0.811765" />
<rect x="31" y="454" width="1" height="1" fill="#FDD455" opacity="0.992157" />
<rect x="249" y="454" width="231" height="1" fill="#FCD354" />
<rect x="480" y="454" width="1" height="1" fill="#FDD455" opacity="0.992157" />
<rect x="481" y="454" width="1" height="1" fill="#FED254" opacity="0.807843" />
<rect x="482" y="454" width="1" height="1" fill="#FBD553" opacity="0.552941" />
<rect x="483" y="454" width="1" height="1" fill="#FFD256" opacity="0.290196" />
<rect x="484" y="454" width="1" height="1" fill="#FFDF80" opacity="0.031373" />
<rect x="31" y="455" width="1" height="1" fill="#FFE659" opacity="0.078431" />
<rect x="32" y="455" width="1" height="1" fill="#FBD655" opacity="0.270588" />
<rect x="33" y="455" width="1" height="1" fill="#FFD453" opacity="0.419608" />
<rect x="34" y="455" width="1" height="1" fill="#FDD553" opacity="0.576471" />
<rect x="35" y="455" width="1" height="1" fill="#FCD355" opacity="0.729412" />
<rect x="36" y="455" width="1" height="1" fill="#FED456" opacity="0.815686" />
<rect x="37" y="455" width="1" height="1" fill="#FDD354" opacity="0.866667" />
<rect x="38" y="455" width="1" height="1" fill="#FDD455" opacity="0.929412" />
<rect x="39" y="455" width="1" height="1" fill="#FDD455" opacity="0.976471" />
<rect x="249" y="455" width="223" height="1" fill="#FCD354" />
<rect x="472" y="455" width="1" height="1" fill="#FDD455" opacity="0.976471" />
<rect x="473" y="455" width="1" height="1" fill="#FDD455" opacity="0.929412" />
<rect x="474" y="455" width="1" height="1" fill="#FDD354" opacity="0.866667" />
<rect x="475" y="455" width="1" height="1" fill="#FED456" opacity="0.815686" />
<rect x="476" y="455" width="1" height="1" fill="#FCD454" opacity="0.725490" />
<rect x="477" y="455" width="1" height="1" fill="#FDD553" opacity="0.576471" />
<rect x="478" y="455" width="1" height="1" fill="#FFD453" opacity="0.419608" />
<rect x="479" y="455" width="1" height="1" fill="#FBD256" opacity="0.266667" />
<rect x="480" y="455" width="1" height="1" fill="#FFE45E" opacity="0.074510" />
</svg>